<svg width="846" height="179" viewBox="0 0 846 179" fill="none" xmlns="http://www.w3.org/2000/svg">
<g clip-path="url(#clip0_3220_28931)">
<rect width="372.668" height="3.21266" fill="url(#paint0_linear_3220_28931)"/>
</g>
<mask id="path-3-outside-1_3220_28931" maskUnits="userSpaceOnUse" x="25" y="51.4106" width="333" height="80" fill="black">
<rect fill="white" x="25" y="51.4106" width="333" height="80"/>
<path d="M85.2109 74.2799V96.8462C85.2109 105.946 85.6658 111.405 86.5758 113.225C86.8791 113.953 87.3947 114.59 88.1227 115.136C88.8506 115.682 89.6392 116.015 90.4885 116.137C91.3984 116.258 92.5813 116.319 94.0372 116.319L94.2192 117.411H69.651L69.833 116.319C71.3496 116.319 72.5325 116.258 73.3818 116.137C74.2917 116.015 75.1106 115.682 75.8386 115.136C76.6272 114.59 77.1731 113.983 77.4765 113.316C77.8404 112.588 78.1437 111.405 78.3864 109.767C78.6897 107.644 78.8414 103.337 78.8414 96.8462V86.8369H41.9891V96.8462C41.9891 103.337 42.1711 107.765 42.5351 110.131C42.9597 112.497 43.536 113.983 44.2639 114.59C45.6592 115.742 47.8733 116.319 50.9064 116.319L51.0884 117.411H26.5203L26.7023 116.319C28.2188 116.319 29.4017 116.258 30.251 116.137C31.1003 116.015 31.8889 115.682 32.6168 115.136C33.4054 114.59 33.9514 113.983 34.2547 113.316C34.6187 112.588 34.922 111.405 35.1646 109.767C35.4679 107.644 35.6196 103.337 35.6196 96.8462V74.2799C35.6196 67.971 35.4376 63.573 35.0736 61.0859C34.7097 58.5987 34.1637 57.0518 33.4358 56.4452C31.9799 55.2926 29.7354 54.7163 26.7023 54.7163L26.5203 53.7154H51.0884L50.9064 54.7163C47.8733 54.7163 45.6592 55.2926 44.2639 56.4452C42.7474 57.7191 41.9891 63.664 41.9891 74.2799V84.4711H78.8414V74.2799C78.8414 65.2412 78.3864 59.7513 77.4765 57.8101C77.1731 57.0822 76.6272 56.4452 75.8386 55.8992C75.1106 55.3533 74.2917 55.0196 73.3818 54.8983C72.5325 54.777 71.3496 54.7163 69.833 54.7163L69.651 53.7154H94.2192L94.0372 54.7163C92.5813 54.7163 91.3984 54.777 90.4885 54.8983C89.6392 55.0196 88.8506 55.3533 88.1227 55.8992C87.3947 56.4452 86.8488 57.0822 86.4848 57.8101C86.1815 58.5381 85.9085 59.721 85.6658 61.3588C85.3625 64.028 85.2109 68.335 85.2109 74.2799ZM150.794 74.3709V92.2055C150.794 96.2699 150.279 99.8793 149.247 103.034C148.277 106.188 147.003 108.706 145.426 110.586C143.848 112.467 141.968 114.014 139.784 115.227C136.084 117.289 131.837 118.321 127.045 118.321C110.606 118.321 102.386 109.919 102.386 93.1155V74.2799C102.386 67.789 102.174 63.3607 101.749 60.9949C101.385 58.629 100.839 57.1428 100.111 56.5362C98.7158 55.3836 96.5016 54.8073 93.4685 54.8073L93.2865 53.7154H117.764L117.582 54.8073C116.126 54.8073 114.943 54.868 114.033 54.9893C113.184 55.1106 112.395 55.4443 111.667 55.9902C110.939 56.5362 110.393 57.1732 110.029 57.9011C109.726 58.5684 109.453 59.721 109.21 61.3588C108.907 63.482 108.755 67.789 108.755 74.2799V93.5704C108.755 101.335 110.484 106.977 113.942 110.495C117.46 113.953 122.162 115.682 128.046 115.682C133.93 115.682 138.813 113.801 142.696 110.04C146.578 106.218 148.519 100.334 148.519 92.3875V74.3709C148.519 68.3047 148.246 63.937 147.7 61.2678C147.154 58.5987 146.245 56.8698 144.971 56.0812C143.757 55.232 141.665 54.8073 138.692 54.8073L138.51 53.7154H160.894L160.712 54.8073C157.74 54.8073 155.617 55.232 154.343 56.0812C153.13 56.8698 152.22 58.5987 151.613 61.2678C151.067 63.937 150.794 68.3047 150.794 74.3709ZM189.284 52.8965C199.05 52.8965 206.845 55.8992 212.669 61.9048C218.553 67.8497 221.495 75.3415 221.495 84.3801C221.495 93.3581 219.16 100.911 214.489 107.037C209.878 113.104 203.509 116.713 195.38 117.866C197.2 118.29 200.445 119.564 205.116 121.687C209.848 123.81 214.155 124.872 218.037 124.872C221.92 124.872 225.651 123.659 229.23 121.232L230.322 122.415C228.259 124.66 226.015 126.419 223.588 127.693C221.222 129.027 218.401 129.695 215.126 129.695C211.911 129.695 208.514 128.876 204.934 127.238C201.416 125.6 197.807 123.962 194.106 122.324C190.406 120.686 187.342 119.867 184.916 119.867C182.489 119.867 180.275 120.201 178.273 120.868L177.818 119.049C178.971 118.503 180.882 118.078 183.551 117.775C175.604 116.379 169.295 112.679 164.624 106.673C159.953 100.607 157.618 93.1155 157.618 84.1981C157.618 75.2201 160.439 67.7587 166.08 61.8138C171.783 55.8689 179.517 52.8965 189.284 52.8965ZM189.83 116.228C197.594 116.228 203.479 113.437 207.482 107.856C211.547 102.215 213.579 94.814 213.579 85.654C213.579 76.494 211.456 69.0933 207.209 63.4517C202.963 57.8101 196.957 54.9893 189.193 54.9893C181.489 54.9893 175.604 57.7798 171.54 63.3607C167.536 68.9416 165.534 76.3424 165.534 85.563C165.534 94.723 167.658 102.124 171.904 107.765C176.15 113.407 182.126 116.228 189.83 116.228ZM276.77 74.3709V92.2055C276.77 96.2699 276.254 99.8793 275.223 103.034C274.253 106.188 272.979 108.706 271.401 110.586C269.824 112.467 267.944 114.014 265.76 115.227C262.059 117.289 257.813 118.321 253.021 118.321C236.581 118.321 228.362 109.919 228.362 93.1155V74.2799C228.362 67.789 228.149 63.3607 227.725 60.9949C227.361 58.629 226.815 57.1428 226.087 56.5362C224.692 55.3836 222.477 54.8073 219.444 54.8073L219.262 53.7154H243.739L243.558 54.8073C242.102 54.8073 240.919 54.868 240.009 54.9893C239.16 55.1106 238.371 55.4443 237.643 55.9902C236.915 56.5362 236.369 57.1732 236.005 57.9011C235.702 58.5684 235.429 59.721 235.186 61.3588C234.883 63.482 234.731 67.789 234.731 74.2799V93.5704C234.731 101.335 236.46 106.977 239.918 110.495C243.436 113.953 248.138 115.682 254.022 115.682C259.906 115.682 264.789 113.801 268.672 110.04C272.554 106.218 274.495 100.334 274.495 92.3875V74.3709C274.495 68.3047 274.222 63.937 273.676 61.2678C273.13 58.5987 272.22 56.8698 270.946 56.0812C269.733 55.232 267.64 54.8073 264.668 54.8073L264.486 53.7154H286.87L286.688 54.8073C283.716 54.8073 281.593 55.232 280.319 56.0812C279.106 56.8698 278.196 58.5987 277.589 61.2678C277.043 63.937 276.77 68.3047 276.77 74.3709ZM315.259 52.8965C325.026 52.8965 332.821 55.8992 338.645 61.9048C344.529 67.8497 347.471 75.3415 347.471 84.3801C347.471 93.3581 345.136 100.911 340.465 107.037C335.854 113.104 329.485 116.713 321.356 117.866C323.176 118.29 326.421 119.564 331.092 121.687C335.824 123.81 340.131 124.872 344.013 124.872C347.896 124.872 351.626 123.659 355.205 121.232L356.297 122.415C354.235 124.66 351.99 126.419 349.564 127.693C347.198 129.027 344.377 129.695 341.101 129.695C337.886 129.695 334.489 128.876 330.91 127.238C327.392 125.6 323.782 123.962 320.082 122.324C316.382 120.686 313.318 119.867 310.892 119.867C308.465 119.867 306.251 120.201 304.249 120.868L303.794 119.049C304.947 118.503 306.858 118.078 309.527 117.775C301.58 116.379 295.271 112.679 290.6 106.673C285.929 100.607 283.594 93.1155 283.594 84.1981C283.594 75.2201 286.415 67.7587 292.056 61.8138C297.758 55.8689 305.493 52.8965 315.259 52.8965ZM315.805 116.228C323.57 116.228 329.454 113.437 333.458 107.856C337.522 102.215 339.555 94.814 339.555 85.654C339.555 76.494 337.431 69.0933 333.185 63.4517C328.939 57.8101 322.933 54.9893 315.168 54.9893C307.464 54.9893 301.58 57.7798 297.516 63.3607C293.512 68.9416 291.51 76.3424 291.51 85.563C291.51 94.723 293.633 102.124 297.88 107.765C302.126 113.407 308.101 116.228 315.805 116.228Z"/>
</mask>
<path d="M85.2109 74.2799V96.8462C85.2109 105.946 85.6658 111.405 86.5758 113.225C86.8791 113.953 87.3947 114.59 88.1227 115.136C88.8506 115.682 89.6392 116.015 90.4885 116.137C91.3984 116.258 92.5813 116.319 94.0372 116.319L94.2192 117.411H69.651L69.833 116.319C71.3496 116.319 72.5325 116.258 73.3818 116.137C74.2917 116.015 75.1106 115.682 75.8386 115.136C76.6272 114.59 77.1731 113.983 77.4765 113.316C77.8404 112.588 78.1437 111.405 78.3864 109.767C78.6897 107.644 78.8414 103.337 78.8414 96.8462V86.8369H41.9891V96.8462C41.9891 103.337 42.1711 107.765 42.5351 110.131C42.9597 112.497 43.536 113.983 44.2639 114.59C45.6592 115.742 47.8733 116.319 50.9064 116.319L51.0884 117.411H26.5203L26.7023 116.319C28.2188 116.319 29.4017 116.258 30.251 116.137C31.1003 116.015 31.8889 115.682 32.6168 115.136C33.4054 114.59 33.9514 113.983 34.2547 113.316C34.6187 112.588 34.922 111.405 35.1646 109.767C35.4679 107.644 35.6196 103.337 35.6196 96.8462V74.2799C35.6196 67.971 35.4376 63.573 35.0736 61.0859C34.7097 58.5987 34.1637 57.0518 33.4358 56.4452C31.9799 55.2926 29.7354 54.7163 26.7023 54.7163L26.5203 53.7154H51.0884L50.9064 54.7163C47.8733 54.7163 45.6592 55.2926 44.2639 56.4452C42.7474 57.7191 41.9891 63.664 41.9891 74.2799V84.4711H78.8414V74.2799C78.8414 65.2412 78.3864 59.7513 77.4765 57.8101C77.1731 57.0822 76.6272 56.4452 75.8386 55.8992C75.1106 55.3533 74.2917 55.0196 73.3818 54.8983C72.5325 54.777 71.3496 54.7163 69.833 54.7163L69.651 53.7154H94.2192L94.0372 54.7163C92.5813 54.7163 91.3984 54.777 90.4885 54.8983C89.6392 55.0196 88.8506 55.3533 88.1227 55.8992C87.3947 56.4452 86.8488 57.0822 86.4848 57.8101C86.1815 58.5381 85.9085 59.721 85.6658 61.3588C85.3625 64.028 85.2109 68.335 85.2109 74.2799ZM150.794 74.3709V92.2055C150.794 96.2699 150.279 99.8793 149.247 103.034C148.277 106.188 147.003 108.706 145.426 110.586C143.848 112.467 141.968 114.014 139.784 115.227C136.084 117.289 131.837 118.321 127.045 118.321C110.606 118.321 102.386 109.919 102.386 93.1155V74.2799C102.386 67.789 102.174 63.3607 101.749 60.9949C101.385 58.629 100.839 57.1428 100.111 56.5362C98.7158 55.3836 96.5016 54.8073 93.4685 54.8073L93.2865 53.7154H117.764L117.582 54.8073C116.126 54.8073 114.943 54.868 114.033 54.9893C113.184 55.1106 112.395 55.4443 111.667 55.9902C110.939 56.5362 110.393 57.1732 110.029 57.9011C109.726 58.5684 109.453 59.721 109.21 61.3588C108.907 63.482 108.755 67.789 108.755 74.2799V93.5704C108.755 101.335 110.484 106.977 113.942 110.495C117.46 113.953 122.162 115.682 128.046 115.682C133.93 115.682 138.813 113.801 142.696 110.04C146.578 106.218 148.519 100.334 148.519 92.3875V74.3709C148.519 68.3047 148.246 63.937 147.7 61.2678C147.154 58.5987 146.245 56.8698 144.971 56.0812C143.757 55.232 141.665 54.8073 138.692 54.8073L138.51 53.7154H160.894L160.712 54.8073C157.74 54.8073 155.617 55.232 154.343 56.0812C153.13 56.8698 152.22 58.5987 151.613 61.2678C151.067 63.937 150.794 68.3047 150.794 74.3709ZM189.284 52.8965C199.05 52.8965 206.845 55.8992 212.669 61.9048C218.553 67.8497 221.495 75.3415 221.495 84.3801C221.495 93.3581 219.16 100.911 214.489 107.037C209.878 113.104 203.509 116.713 195.38 117.866C197.2 118.29 200.445 119.564 205.116 121.687C209.848 123.81 214.155 124.872 218.037 124.872C221.92 124.872 225.651 123.659 229.23 121.232L230.322 122.415C228.259 124.66 226.015 126.419 223.588 127.693C221.222 129.027 218.401 129.695 215.126 129.695C211.911 129.695 208.514 128.876 204.934 127.238C201.416 125.6 197.807 123.962 194.106 122.324C190.406 120.686 187.342 119.867 184.916 119.867C182.489 119.867 180.275 120.201 178.273 120.868L177.818 119.049C178.971 118.503 180.882 118.078 183.551 117.775C175.604 116.379 169.295 112.679 164.624 106.673C159.953 100.607 157.618 93.1155 157.618 84.1981C157.618 75.2201 160.439 67.7587 166.08 61.8138C171.783 55.8689 179.517 52.8965 189.284 52.8965ZM189.83 116.228C197.594 116.228 203.479 113.437 207.482 107.856C211.547 102.215 213.579 94.814 213.579 85.654C213.579 76.494 211.456 69.0933 207.209 63.4517C202.963 57.8101 196.957 54.9893 189.193 54.9893C181.489 54.9893 175.604 57.7798 171.54 63.3607C167.536 68.9416 165.534 76.3424 165.534 85.563C165.534 94.723 167.658 102.124 171.904 107.765C176.15 113.407 182.126 116.228 189.83 116.228ZM276.77 74.3709V92.2055C276.77 96.2699 276.254 99.8793 275.223 103.034C274.253 106.188 272.979 108.706 271.401 110.586C269.824 112.467 267.944 114.014 265.76 115.227C262.059 117.289 257.813 118.321 253.021 118.321C236.581 118.321 228.362 109.919 228.362 93.1155V74.2799C228.362 67.789 228.149 63.3607 227.725 60.9949C227.361 58.629 226.815 57.1428 226.087 56.5362C224.692 55.3836 222.477 54.8073 219.444 54.8073L219.262 53.7154H243.739L243.558 54.8073C242.102 54.8073 240.919 54.868 240.009 54.9893C239.16 55.1106 238.371 55.4443 237.643 55.9902C236.915 56.5362 236.369 57.1732 236.005 57.9011C235.702 58.5684 235.429 59.721 235.186 61.3588C234.883 63.482 234.731 67.789 234.731 74.2799V93.5704C234.731 101.335 236.46 106.977 239.918 110.495C243.436 113.953 248.138 115.682 254.022 115.682C259.906 115.682 264.789 113.801 268.672 110.04C272.554 106.218 274.495 100.334 274.495 92.3875V74.3709C274.495 68.3047 274.222 63.937 273.676 61.2678C273.13 58.5987 272.22 56.8698 270.946 56.0812C269.733 55.232 267.64 54.8073 264.668 54.8073L264.486 53.7154H286.87L286.688 54.8073C283.716 54.8073 281.593 55.232 280.319 56.0812C279.106 56.8698 278.196 58.5987 277.589 61.2678C277.043 63.937 276.77 68.3047 276.77 74.3709ZM315.259 52.8965C325.026 52.8965 332.821 55.8992 338.645 61.9048C344.529 67.8497 347.471 75.3415 347.471 84.3801C347.471 93.3581 345.136 100.911 340.465 107.037C335.854 113.104 329.485 116.713 321.356 117.866C323.176 118.29 326.421 119.564 331.092 121.687C335.824 123.81 340.131 124.872 344.013 124.872C347.896 124.872 351.626 123.659 355.205 121.232L356.297 122.415C354.235 124.66 351.99 126.419 349.564 127.693C347.198 129.027 344.377 129.695 341.101 129.695C337.886 129.695 334.489 128.876 330.91 127.238C327.392 125.6 323.782 123.962 320.082 122.324C316.382 120.686 313.318 119.867 310.892 119.867C308.465 119.867 306.251 120.201 304.249 120.868L303.794 119.049C304.947 118.503 306.858 118.078 309.527 117.775C301.58 116.379 295.271 112.679 290.6 106.673C285.929 100.607 283.594 93.1155 283.594 84.1981C283.594 75.2201 286.415 67.7587 292.056 61.8138C297.758 55.8689 305.493 52.8965 315.259 52.8965ZM315.805 116.228C323.57 116.228 329.454 113.437 333.458 107.856C337.522 102.215 339.555 94.814 339.555 85.654C339.555 76.494 337.431 69.0933 333.185 63.4517C328.939 57.8101 322.933 54.9893 315.168 54.9893C307.464 54.9893 301.58 57.7798 297.516 63.3607C293.512 68.9416 291.51 76.3424 291.51 85.563C291.51 94.723 293.633 102.124 297.88 107.765C302.126 113.407 308.101 116.228 315.805 116.228Z" fill="url(#paint1_linear_3220_28931)"/>
<path d="M86.5758 113.225L87.5643 112.813L87.5501 112.779L87.5336 112.746L86.5758 113.225ZM88.1227 115.136L88.7652 114.279L88.7652 114.279L88.1227 115.136ZM90.4885 116.137L90.337 117.197L90.347 117.198L90.4885 116.137ZM94.0372 116.319L95.0935 116.143L94.9444 115.248H94.0372V116.319ZM94.2192 117.411V118.482H95.4833L95.2755 117.235L94.2192 117.411ZM69.651 117.411L68.5947 117.235L68.3869 118.482H69.651V117.411ZM69.833 116.319V115.248H68.9259L68.7767 116.143L69.833 116.319ZM73.3818 116.137L73.2402 115.075L73.2303 115.077L73.3818 116.137ZM75.8386 115.136L75.229 114.255L75.2123 114.267L75.196 114.279L75.8386 115.136ZM77.4765 113.316L76.5186 112.837L76.5098 112.855L76.5016 112.873L77.4765 113.316ZM78.3864 109.767L79.4457 109.924L79.4465 109.919L78.3864 109.767ZM78.8414 86.8369H79.9122V85.766H78.8414V86.8369ZM41.9891 86.8369V85.766H40.9182V86.8369H41.9891ZM42.5351 110.131L41.4766 110.294L41.4787 110.307L41.481 110.32L42.5351 110.131ZM44.2639 114.59L43.5784 115.413L43.5819 115.415L44.2639 114.59ZM50.9064 116.319L51.9628 116.143L51.8136 115.248H50.9064V116.319ZM51.0884 117.411V118.482H52.3526L52.1447 117.235L51.0884 117.411ZM26.5203 117.411L25.464 117.235L25.2561 118.482H26.5203V117.411ZM26.7023 116.319V115.248H25.7951L25.6459 116.143L26.7023 116.319ZM32.6168 115.136L32.0073 114.255L31.9905 114.267L31.9743 114.279L32.6168 115.136ZM34.2547 113.316L33.2969 112.837L33.288 112.855L33.2798 112.873L34.2547 113.316ZM35.1646 109.767L36.224 109.924L36.2247 109.919L35.1646 109.767ZM33.4358 56.4452L34.1213 55.6225L34.111 55.6139L34.1005 55.6056L33.4358 56.4452ZM26.7023 54.7163L25.6486 54.9079L25.8085 55.7872H26.7023V54.7163ZM26.5203 53.7154V52.6445H25.2371L25.4667 53.907L26.5203 53.7154ZM51.0884 53.7154L52.142 53.907L52.3716 52.6445H51.0884V53.7154ZM50.9064 54.7163V55.7872H51.8002L51.9601 54.9079L50.9064 54.7163ZM44.2639 56.4452L43.5819 55.6196L43.5752 55.6252L44.2639 56.4452ZM41.9891 84.4711H40.9182V85.542H41.9891V84.4711ZM78.8414 84.4711V85.542H79.9122V84.4711H78.8414ZM77.4765 57.8101L76.4879 58.222L76.4969 58.2435L76.5068 58.2646L77.4765 57.8101ZM75.8386 55.8992L75.196 56.756L75.2123 56.7681L75.229 56.7797L75.8386 55.8992ZM73.3818 54.8983L73.2303 55.9585L73.2402 55.9598L73.3818 54.8983ZM69.833 54.7163L68.7794 54.9079L68.9393 55.7872H69.833V54.7163ZM69.651 53.7154V52.6445H68.3679L68.5974 53.907L69.651 53.7154ZM94.2192 53.7154L95.2728 53.907L95.5024 52.6445H94.2192V53.7154ZM94.0372 54.7163V55.7872H94.931L95.0908 54.9079L94.0372 54.7163ZM90.4885 54.8983L90.3469 53.8368L90.337 53.8382L90.4885 54.8983ZM88.1227 55.8992L88.7652 56.756L88.7652 56.756L88.1227 55.8992ZM86.4848 57.8101L85.527 57.3312L85.5105 57.3642L85.4963 57.3982L86.4848 57.8101ZM85.6658 61.3588L84.6065 61.2019L84.6039 61.2199L84.6018 61.2379L85.6658 61.3588ZM84.14 74.2799V96.8462H86.2818V74.2799H84.14ZM84.14 96.8462C84.14 101.409 84.2539 105.082 84.4849 107.854C84.6004 109.24 84.7464 110.417 84.9261 111.375C85.1027 112.317 85.3235 113.115 85.6179 113.704L87.5336 112.746C87.373 112.425 87.1958 111.858 87.0312 110.98C86.8696 110.119 86.7313 109.02 86.6193 107.676C86.3953 104.989 86.2818 101.383 86.2818 96.8462H84.14ZM85.5873 113.637C85.9748 114.567 86.6231 115.35 87.4801 115.993L88.7652 114.279C88.1663 113.83 87.7834 113.339 87.5643 112.813L85.5873 113.637ZM87.4801 115.993C88.343 116.64 89.2987 117.049 90.337 117.197L90.6399 115.077C89.9797 114.982 89.3582 114.724 88.7652 114.279L87.4801 115.993ZM90.347 117.198C91.3227 117.328 92.558 117.39 94.0372 117.39V115.248C92.6047 115.248 91.4741 115.188 90.63 115.075L90.347 117.198ZM92.9809 116.495L93.1629 117.587L95.2755 117.235L95.0935 116.143L92.9809 116.495ZM94.2192 116.34H69.651V118.482H94.2192V116.34ZM70.7074 117.587L70.8893 116.495L68.7767 116.143L68.5947 117.235L70.7074 117.587ZM69.833 117.39C71.3681 117.39 72.6097 117.329 73.5332 117.197L73.2303 115.077C72.4553 115.187 71.331 115.248 69.833 115.248V117.39ZM73.5233 117.198C74.6133 117.053 75.6051 116.65 76.4811 115.993L75.196 114.279C74.6162 114.714 73.9701 114.978 73.2402 115.075L73.5233 117.198ZM76.4481 116.016C77.3479 115.393 78.0469 114.649 78.4514 113.759L76.5016 112.873C76.2994 113.318 75.9065 113.786 75.229 114.255L76.4481 116.016ZM78.4343 113.795C78.8781 112.907 79.1999 111.583 79.4457 109.924L77.3271 109.61C77.0875 111.227 76.8028 112.269 76.5186 112.837L78.4343 113.795ZM79.4465 109.919C79.7624 107.707 79.9122 103.324 79.9122 96.8462H77.7705C77.7705 103.35 77.617 107.581 77.3263 109.616L79.4465 109.919ZM79.9122 96.8462V86.8369H77.7705V96.8462H79.9122ZM78.8414 85.766H41.9891V87.9078H78.8414V85.766ZM40.9182 86.8369V96.8462H43.06V86.8369H40.9182ZM40.9182 96.8462C40.9182 103.329 41.0985 107.836 41.4766 110.294L43.5935 109.968C43.2437 107.695 43.06 103.345 43.06 96.8462H40.9182ZM41.481 110.32C41.7 111.541 41.9652 112.577 42.2873 113.407C42.6017 114.218 43.0099 114.939 43.5784 115.413L44.9495 113.767C44.79 113.634 44.5461 113.309 44.2842 112.633C44.03 111.977 43.7947 111.088 43.5891 109.942L41.481 110.32ZM43.5819 115.415C45.2616 116.803 47.779 117.39 50.9064 117.39V115.248C47.9677 115.248 46.0568 114.682 44.946 113.764L43.5819 115.415ZM49.8501 116.495L50.0321 117.587L52.1447 117.235L51.9628 116.143L49.8501 116.495ZM51.0884 116.34H26.5203V118.482H51.0884V116.34ZM27.5766 117.587L27.7586 116.495L25.6459 116.143L25.464 117.235L27.5766 117.587ZM26.7023 117.39C28.2374 117.39 29.4789 117.329 30.4024 117.197L30.0995 115.077C29.3245 115.187 28.2003 115.248 26.7023 115.248V117.39ZM30.4024 117.197C31.4407 117.049 32.3964 116.64 33.2593 115.993L31.9743 114.279C31.3813 114.724 30.7598 114.982 30.0995 115.077L30.4024 117.197ZM33.2264 116.016C34.1261 115.393 34.8251 114.649 35.2296 113.759L33.2798 112.873C33.0776 113.318 32.6847 113.786 32.0073 114.255L33.2264 116.016ZM35.2125 113.795C35.6563 112.907 35.9782 111.583 36.2239 109.924L34.1053 109.61C33.8658 111.227 33.581 112.269 33.2969 112.837L35.2125 113.795ZM36.2247 109.919C36.5406 107.707 36.6905 103.324 36.6905 96.8462H34.5487C34.5487 103.35 34.3952 107.581 34.1045 109.616L36.2247 109.919ZM36.6905 96.8462V74.2799H34.5487V96.8462H36.6905ZM36.6905 74.2799C36.6905 67.9736 36.5098 63.5041 36.1332 60.9308L34.014 61.2409C34.3654 63.6419 34.5487 67.9685 34.5487 74.2799H36.6905ZM36.1332 60.9308C35.9459 59.6507 35.7058 58.5675 35.401 57.7039C35.1049 56.8649 34.7057 56.1095 34.1213 55.6225L32.7502 57.2679C32.8937 57.3875 33.1315 57.7088 33.3813 58.4167C33.6225 59.1001 33.8374 60.0338 34.014 61.2409L36.1332 60.9308ZM34.1005 55.6056C32.3684 54.2344 29.8354 53.6455 26.7023 53.6455V55.7872C29.6353 55.7872 31.5913 56.3509 32.7711 57.2848L34.1005 55.6056ZM27.7559 54.5248L27.5739 53.5238L25.4667 53.907L25.6486 54.9079L27.7559 54.5248ZM26.5203 54.7863H51.0884V52.6445H26.5203V54.7863ZM50.0348 53.5238L49.8528 54.5248L51.9601 54.9079L52.142 53.907L50.0348 53.5238ZM50.9064 53.6455C47.779 53.6455 45.2616 54.2321 43.5819 55.6196L44.946 57.2708C46.0568 56.3532 47.9677 55.7872 50.9064 55.7872V53.6455ZM43.5752 55.6252C42.9528 56.148 42.546 57.0068 42.2473 57.9546C41.9361 58.9422 41.6891 60.2063 41.4955 61.7238C41.1079 64.7628 40.9182 68.9554 40.9182 74.2799H43.06C43.06 68.9884 43.2494 64.9007 43.6201 61.9948C43.8057 60.5398 44.0326 59.4154 44.2901 58.5983C44.5601 57.7414 44.8168 57.3794 44.9527 57.2652L43.5752 55.6252ZM40.9182 74.2799V84.4711H43.06V74.2799H40.9182ZM41.9891 85.542H78.8414V83.4002H41.9891V85.542ZM79.9122 84.4711V74.2799H77.7705V84.4711H79.9122ZM79.9122 74.2799C79.9122 69.7471 79.7983 66.0819 79.5674 63.295C79.3409 60.5621 78.993 58.5222 78.4461 57.3556L76.5068 58.2646C76.8699 59.0392 77.2044 60.7149 77.4329 63.4719C77.6569 66.1749 77.7705 69.774 77.7705 74.2799H79.9122ZM78.465 57.3982C78.0672 56.4437 77.3686 55.656 76.4481 55.0188L75.229 56.7797C75.8858 57.2344 76.2791 57.7207 76.4879 58.222L78.465 57.3982ZM76.4811 55.0425C75.6051 54.3855 74.6133 53.9822 73.5233 53.8368L73.2402 55.9598C73.9701 56.0571 74.6162 56.321 75.196 56.756L76.4811 55.0425ZM73.5332 53.8382C72.6097 53.7063 71.3681 53.6455 69.833 53.6455V55.7872C71.331 55.7872 72.4553 55.8477 73.2303 55.9584L73.5332 53.8382ZM70.8866 54.5248L70.7047 53.5238L68.5974 53.907L68.7794 54.9079L70.8866 54.5248ZM69.651 54.7863H94.2192V52.6445H69.651V54.7863ZM93.1656 53.5238L92.9836 54.5248L95.0908 54.9079L95.2728 53.907L93.1656 53.5238ZM94.0372 53.6455C92.558 53.6455 91.3227 53.7067 90.347 53.8368L90.63 55.9598C91.4741 55.8473 92.6047 55.7872 94.0372 55.7872V53.6455ZM90.337 53.8382C89.2987 53.9865 88.343 54.3953 87.4801 55.0425L88.7652 56.756C89.3582 56.3112 89.9797 56.0528 90.6399 55.9584L90.337 53.8382ZM87.4801 55.0425C86.6351 55.6763 85.9737 56.4378 85.527 57.3312L87.4426 58.289C87.7238 57.7266 88.1544 57.2141 88.7652 56.756L87.4801 55.0425ZM85.4963 57.3982C85.1388 58.2561 84.8512 59.5504 84.6065 61.2019L86.7252 61.5158C86.9658 59.8915 87.2241 58.82 87.4733 58.222L85.4963 57.3982ZM84.6018 61.2379C84.2911 63.9718 84.14 68.3309 84.14 74.2799H86.2818C86.2818 68.339 86.4339 64.0841 86.7299 61.4797L84.6018 61.2379ZM149.247 103.034L148.229 102.701L148.227 102.71L148.224 102.719L149.247 103.034ZM145.426 110.586L146.246 111.274L146.246 111.274L145.426 110.586ZM139.784 115.227L139.264 114.291L139.263 114.291L139.784 115.227ZM101.749 60.9949L100.69 61.1577L100.692 61.1709L100.695 61.1841L101.749 60.9949ZM100.111 56.5362L100.797 55.7135L100.793 55.7106L100.111 56.5362ZM93.4685 54.8073L92.4122 54.9834L92.5613 55.8782H93.4685V54.8073ZM93.2865 53.7154V52.6445H92.0224L92.2302 53.8915L93.2865 53.7154ZM117.764 53.7154L118.82 53.8915L119.028 52.6445H117.764V53.7154ZM117.582 54.8073V55.8782H118.489L118.638 54.9834L117.582 54.8073ZM114.033 54.9893L113.891 53.9278L113.882 53.9292L114.033 54.9893ZM111.667 55.9902L111.025 55.1335L111.025 55.1335L111.667 55.9902ZM110.029 57.9011L109.071 57.4222L109.063 57.4399L109.054 57.458L110.029 57.9011ZM109.21 61.3588L108.151 61.2019L108.15 61.2074L109.21 61.3588ZM113.942 110.495L113.178 111.246L113.185 111.252L113.191 111.259L113.942 110.495ZM142.696 110.04L143.441 110.809L143.447 110.803L142.696 110.04ZM147.7 61.2678L148.75 61.0532L148.75 61.0532L147.7 61.2678ZM144.971 56.0812L144.357 56.9585L144.381 56.9759L144.407 56.9918L144.971 56.0812ZM138.692 54.8073L137.636 54.9834L137.785 55.8782H138.692V54.8073ZM138.51 53.7154V52.6445H137.246L137.454 53.8915L138.51 53.7154ZM160.894 53.7154L161.951 53.8915L162.159 52.6445H160.894V53.7154ZM160.712 54.8073V55.8782H161.62L161.769 54.9834L160.712 54.8073ZM154.343 56.0812L154.927 56.9792L154.937 56.9723L154.343 56.0812ZM151.613 61.2678L150.569 61.0305L150.566 61.0419L150.564 61.0532L151.613 61.2678ZM149.723 74.3709V92.2055H151.865V74.3709H149.723ZM149.723 92.2055C149.723 96.1813 149.219 99.6749 148.229 102.701L150.265 103.366C151.338 100.084 151.865 96.3585 151.865 92.2055H149.723ZM148.224 102.719C147.282 105.781 146.065 108.158 144.605 109.898L146.246 111.274C147.941 109.253 149.272 106.595 150.271 103.349L148.224 102.719ZM144.605 109.898C143.114 111.676 141.335 113.14 139.264 114.291L140.304 116.163C142.6 114.887 144.583 113.257 146.246 111.274L144.605 109.898ZM139.263 114.291C135.742 116.254 131.679 117.25 127.045 117.25V119.391C131.995 119.391 136.426 118.325 140.305 116.162L139.263 114.291ZM127.045 117.25C118.996 117.25 113.155 115.195 109.316 111.27C105.473 107.342 103.457 101.358 103.457 93.1155H101.315C101.315 101.676 103.409 108.295 107.785 112.768C112.166 117.246 118.654 119.391 127.045 119.391V117.25ZM103.457 93.1155V74.2799H101.315V93.1155H103.457ZM103.457 74.2799C103.457 67.7976 103.247 63.2784 102.803 60.8057L100.695 61.1841C101.1 63.443 101.315 67.7804 101.315 74.2799H103.457ZM102.807 60.832C102.619 59.6106 102.378 58.5712 102.072 57.7366C101.772 56.9218 101.372 56.1929 100.797 55.7135L99.4255 57.3589C99.5781 57.4861 99.8146 57.8036 100.061 58.4751C100.301 59.1267 100.514 60.0134 100.69 61.1577L102.807 60.832ZM100.793 55.7106C99.1134 54.323 96.596 53.7364 93.4685 53.7364V55.8782C96.4073 55.8782 98.3182 56.4442 99.429 57.3618L100.793 55.7106ZM94.5248 54.6313L94.3428 53.5394L92.2302 53.8915L92.4122 54.9834L94.5248 54.6313ZM93.2865 54.7863H117.764V52.6445H93.2865V54.7863ZM116.707 53.5394L116.525 54.6313L118.638 54.9834L118.82 53.8915L116.707 53.5394ZM117.582 53.7364C116.102 53.7364 114.867 53.7977 113.891 53.9278L114.175 56.0508C115.019 55.9383 116.149 55.8782 117.582 55.8782V53.7364ZM113.882 53.9292C112.843 54.0775 111.888 54.4863 111.025 55.1335L112.31 56.847C112.903 56.4022 113.524 56.1438 114.184 56.0494L113.882 53.9292ZM111.025 55.1335C110.18 55.7673 109.518 56.5288 109.071 57.4222L110.987 58.38C111.268 57.8175 111.699 57.3051 112.31 56.847L111.025 55.1335ZM109.054 57.458C108.684 58.2737 108.395 59.5575 108.151 61.2019L110.27 61.5158C110.511 59.8844 110.768 58.863 111.004 58.3442L109.054 57.458ZM108.15 61.2074C107.834 63.4186 107.684 67.8024 107.684 74.2799H109.826C109.826 67.7757 109.98 63.5454 110.27 61.5103L108.15 61.2074ZM107.684 74.2799V93.5704H109.826V74.2799H107.684ZM107.684 93.5704C107.684 101.46 109.436 107.438 113.178 111.246L114.706 109.745C111.532 106.515 109.826 101.21 109.826 93.5704H107.684ZM113.191 111.259C116.948 114.951 121.939 116.753 128.046 116.753V114.611C122.385 114.611 117.973 112.955 114.693 109.731L113.191 111.259ZM128.046 116.753C134.181 116.753 139.34 114.782 143.441 110.809L141.951 109.271C138.287 112.821 133.679 114.611 128.046 114.611V116.753ZM143.447 110.803C147.612 106.704 149.59 100.489 149.59 92.3875H147.449C147.449 100.179 145.545 105.733 141.945 109.277L143.447 110.803ZM149.59 92.3875V74.3709H147.449V92.3875H149.59ZM149.59 74.3709C149.59 68.2982 149.319 63.8368 148.75 61.0532L146.651 61.4824C147.174 64.0372 147.449 68.3111 147.449 74.3709H149.59ZM148.75 61.0532C148.189 58.312 147.2 56.2016 145.534 55.1707L144.407 56.9918C145.29 57.5381 146.12 58.8854 146.651 61.4824L148.75 61.0532ZM145.585 55.2039C144.084 54.1536 141.701 53.7364 138.692 53.7364V55.8782C141.628 55.8782 143.431 56.3104 144.357 56.9585L145.585 55.2039ZM139.748 54.6313L139.566 53.5394L137.454 53.8915L137.636 54.9834L139.748 54.6313ZM138.51 54.7863H160.894V52.6445H138.51V54.7863ZM159.838 53.5394L159.656 54.6313L161.769 54.9834L161.951 53.8915L159.838 53.5394ZM160.712 53.7364C157.695 53.7364 155.299 54.1566 153.749 55.1902L154.937 56.9723C155.934 56.3073 157.785 55.8782 160.712 55.8782V53.7364ZM153.759 55.1834C152.177 56.2121 151.188 58.3048 150.569 61.0305L152.657 61.5052C153.251 58.8926 154.083 57.5276 154.927 56.9791L153.759 55.1834ZM150.564 61.0532C149.995 63.8368 149.723 68.2982 149.723 74.3709H151.865C151.865 68.3111 152.14 64.0372 152.662 61.4824L150.564 61.0532ZM212.669 61.9048L211.9 62.6503L211.908 62.6581L212.669 61.9048ZM214.489 107.037L213.637 106.388L213.636 106.389L214.489 107.037ZM195.38 117.866L195.23 116.805L195.137 118.908L195.38 117.866ZM205.116 121.687L204.673 122.662L204.678 122.664L205.116 121.687ZM229.23 121.232L230.017 120.506L229.391 119.829L228.629 120.346L229.23 121.232ZM230.322 122.415L231.11 123.14L231.777 122.414L231.108 121.689L230.322 122.415ZM223.588 127.693L223.09 126.745L223.076 126.752L223.062 126.76L223.588 127.693ZM204.934 127.238L204.483 128.209L204.489 128.212L204.934 127.238ZM194.106 122.324L193.673 123.304L193.673 123.304L194.106 122.324ZM178.273 120.868L177.235 121.128L177.515 122.25L178.612 121.884L178.273 120.868ZM177.818 119.049L177.36 118.081L176.567 118.457L176.78 119.308L177.818 119.049ZM183.551 117.775L183.672 118.839L183.736 116.72L183.551 117.775ZM164.624 106.673L163.776 107.327L163.779 107.331L164.624 106.673ZM166.08 61.8138L165.308 61.0725L165.304 61.0767L166.08 61.8138ZM207.482 107.856L206.613 107.23L206.612 107.232L207.482 107.856ZM207.209 63.4517L208.065 62.8077L208.065 62.8077L207.209 63.4517ZM171.54 63.3607L170.674 62.7302L170.67 62.7365L171.54 63.3607ZM171.904 107.765L171.048 108.409L171.048 108.409L171.904 107.765ZM189.284 53.9674C198.813 53.9674 206.312 56.8877 211.9 62.6503L213.438 61.1593C207.378 54.9108 199.287 51.8256 189.284 51.8256V53.9674ZM211.908 62.6581C217.577 68.3854 220.424 75.5985 220.424 84.3801H222.566C222.566 75.0844 219.53 67.314 213.43 61.1515L211.908 62.6581ZM220.424 84.3801C220.424 93.1638 218.143 100.478 213.637 106.388L215.34 107.687C220.176 101.344 222.566 93.5524 222.566 84.3801H220.424ZM213.636 106.389C209.211 112.213 203.103 115.689 195.23 116.805L195.531 118.926C203.915 117.737 210.546 113.995 215.341 107.685L213.636 106.389ZM195.137 118.908C196.839 119.306 199.992 120.534 204.673 122.662L205.56 120.712C200.899 118.594 197.561 117.275 195.624 116.823L195.137 118.908ZM204.678 122.664C209.504 124.83 213.962 125.943 218.037 125.943V123.801C214.348 123.801 210.193 122.791 205.555 120.71L204.678 122.664ZM218.037 125.943C222.158 125.943 226.095 124.651 229.831 122.119L228.629 120.346C225.206 122.666 221.682 123.801 218.037 123.801V125.943ZM228.443 121.959L229.535 123.142L231.108 121.689L230.017 120.506L228.443 121.959ZM229.533 121.691C227.545 123.855 225.396 125.534 223.09 126.745L224.086 128.641C226.633 127.304 228.974 125.465 231.11 123.14L229.533 121.691ZM223.062 126.76C220.887 127.987 218.255 128.624 215.126 128.624V130.766C218.548 130.766 221.558 130.068 224.114 128.626L223.062 126.76ZM215.126 128.624C212.095 128.624 208.85 127.852 205.38 126.264L204.489 128.212C208.177 129.9 211.726 130.766 215.126 130.766V128.624ZM205.386 126.267C201.862 124.626 198.246 122.986 194.54 121.345L193.673 123.304C197.367 124.939 200.971 126.574 204.483 128.209L205.386 126.267ZM194.54 121.345C190.782 119.682 187.559 118.797 184.916 118.797V120.938C187.126 120.938 190.03 121.691 193.673 123.304L194.54 121.345ZM184.916 118.797C182.391 118.797 180.061 119.144 177.935 119.852L178.612 121.884C180.49 121.258 182.588 120.938 184.916 120.938V118.797ZM179.312 120.609L178.857 118.789L176.78 119.308L177.235 121.128L179.312 120.609ZM178.277 120.016C179.26 119.551 181.02 119.14 183.672 118.839L183.43 116.711C180.744 117.016 178.683 117.454 177.36 118.081L178.277 120.016ZM183.736 116.72C176.034 115.368 169.967 111.798 165.47 106.016L163.779 107.331C168.624 113.56 175.175 117.391 183.366 118.829L183.736 116.72ZM165.473 106.02C160.969 100.171 158.689 92.9196 158.689 84.1981H156.547C156.547 93.3113 158.938 101.044 163.776 107.327L165.473 106.02ZM158.689 84.1981C158.689 75.4659 161.423 68.2771 166.857 62.551L165.304 61.0767C159.454 67.2403 156.547 74.9744 156.547 84.1981H158.689ZM166.853 62.5551C172.316 56.8596 179.75 53.9674 189.284 53.9674V51.8256C179.284 51.8256 171.249 54.8782 165.308 61.0725L166.853 62.5551ZM189.83 117.299C197.887 117.299 204.119 114.382 208.352 108.481L206.612 107.232C202.838 112.493 197.301 115.157 189.83 115.157V117.299ZM208.351 108.482C212.583 102.608 214.65 94.9679 214.65 85.654H212.508C212.508 94.6601 210.51 101.821 206.613 107.23L208.351 108.482ZM214.65 85.654C214.65 76.331 212.488 68.6835 208.065 62.8077L206.354 64.0957C210.424 69.503 212.508 76.6571 212.508 85.654H214.65ZM208.065 62.8077C203.594 56.8678 197.255 53.9184 189.193 53.9184V56.0602C196.66 56.0602 202.332 58.7524 206.354 64.0957L208.065 62.8077ZM189.193 53.9184C181.192 53.9184 174.966 56.8375 170.674 62.7303L172.406 63.9911C176.243 58.722 181.785 56.0602 189.193 56.0602V53.9184ZM170.67 62.7365C166.498 68.5524 164.464 76.194 164.464 85.563H166.605C166.605 76.4907 168.575 69.3308 172.41 63.9849L170.67 62.7365ZM164.464 85.563C164.464 94.8861 166.626 102.534 171.048 108.409L172.76 107.121C168.69 101.714 166.605 94.5599 166.605 85.563H164.464ZM171.048 108.409C175.517 114.347 181.825 117.299 189.83 117.299V115.157C182.427 115.157 176.783 112.467 172.76 107.121L171.048 108.409ZM275.223 103.034L274.205 102.701L274.202 102.71L274.2 102.719L275.223 103.034ZM271.401 110.586L272.222 111.274L272.222 111.274L271.401 110.586ZM265.76 115.227L265.24 114.291L265.238 114.291L265.76 115.227ZM227.725 60.9949L226.666 61.1577L226.668 61.1709L226.671 61.1841L227.725 60.9949ZM226.087 56.5362L226.772 55.7135L226.769 55.7106L226.087 56.5362ZM219.444 54.8073L218.388 54.9834L218.537 55.8782H219.444V54.8073ZM219.262 53.7154V52.6445H217.998L218.206 53.8915L219.262 53.7154ZM243.739 53.7154L244.796 53.8915L245.004 52.6445H243.739V53.7154ZM243.558 54.8073V55.8782H244.465L244.614 54.9834L243.558 54.8073ZM240.009 54.9893L239.867 53.9278L239.857 53.9292L240.009 54.9893ZM237.643 55.9902L237 55.1335L237 55.1335L237.643 55.9902ZM236.005 57.9011L235.047 57.4222L235.038 57.4399L235.03 57.458L236.005 57.9011ZM235.186 61.3588L234.127 61.2019L234.126 61.2074L235.186 61.3588ZM239.918 110.495L239.154 111.246L239.161 111.252L239.167 111.259L239.918 110.495ZM268.672 110.04L269.417 110.809L269.423 110.803L268.672 110.04ZM273.676 61.2678L274.725 61.0532L274.725 61.0532L273.676 61.2678ZM270.946 56.0812L270.332 56.9585L270.357 56.9759L270.383 56.9918L270.946 56.0812ZM264.668 54.8073L263.612 54.9834L263.761 55.8782H264.668V54.8073ZM264.486 53.7154V52.6445H263.222L263.43 53.8915L264.486 53.7154ZM286.87 53.7154L287.927 53.8915L288.134 52.6445H286.87V53.7154ZM286.688 54.8073V55.8782H287.595L287.745 54.9834L286.688 54.8073ZM280.319 56.0812L280.902 56.9792L280.913 56.9723L280.319 56.0812ZM277.589 61.2678L276.545 61.0305L276.542 61.0419L276.54 61.0532L277.589 61.2678ZM275.699 74.3709V92.2055H277.841V74.3709H275.699ZM275.699 92.2055C275.699 96.1813 275.195 99.6749 274.205 102.701L276.241 103.366C277.314 100.084 277.841 96.3585 277.841 92.2055H275.699ZM274.2 102.719C273.257 105.781 272.04 108.158 270.581 109.898L272.222 111.274C273.917 109.253 275.248 106.595 276.247 103.349L274.2 102.719ZM270.581 109.898C269.089 111.676 267.311 113.14 265.24 114.291L266.28 116.163C268.576 114.887 270.559 113.257 272.222 111.274L270.581 109.898ZM265.238 114.291C261.717 116.254 257.655 117.25 253.021 117.25V119.391C257.971 119.391 262.401 118.325 266.281 116.162L265.238 114.291ZM253.021 117.25C244.972 117.25 239.131 115.195 235.292 111.27C231.449 107.342 229.433 101.358 229.433 93.1155H227.291C227.291 101.676 229.385 108.295 233.761 112.768C238.142 117.246 244.63 119.391 253.021 119.391V117.25ZM229.433 93.1155V74.2799H227.291V93.1155H229.433ZM229.433 74.2799C229.433 67.7976 229.223 63.2784 228.779 60.8057L226.671 61.1841C227.076 63.443 227.291 67.7804 227.291 74.2799H229.433ZM228.783 60.832C228.595 59.6106 228.354 58.5712 228.047 57.7366C227.748 56.9218 227.348 56.1929 226.772 55.7135L225.401 57.3589C225.554 57.4861 225.79 57.8036 226.037 58.4751C226.276 59.1267 226.49 60.0134 226.666 61.1577L228.783 60.832ZM226.769 55.7106C225.089 54.323 222.572 53.7364 219.444 53.7364V55.8782C222.383 55.8782 224.294 56.4442 225.405 57.3618L226.769 55.7106ZM220.501 54.6313L220.319 53.5394L218.206 53.8915L218.388 54.9834L220.501 54.6313ZM219.262 54.7863H243.739V52.6445H219.262V54.7863ZM242.683 53.5394L242.501 54.6313L244.614 54.9834L244.796 53.8915L242.683 53.5394ZM243.558 53.7364C242.078 53.7364 240.843 53.7977 239.867 53.9278L240.15 56.0508C240.994 55.9383 242.125 55.8782 243.558 55.8782V53.7364ZM239.857 53.9292C238.819 54.0775 237.863 54.4863 237 55.1335L238.285 56.847C238.878 56.4022 239.5 56.1438 240.16 56.0494L239.857 53.9292ZM237 55.1335C236.155 55.7673 235.494 56.5288 235.047 57.4222L236.963 58.38C237.244 57.8175 237.675 57.3051 238.285 56.847L237 55.1335ZM235.03 57.458C234.659 58.2737 234.37 59.5575 234.127 61.2019L236.245 61.5158C236.487 59.8844 236.744 58.863 236.98 58.3442L235.03 57.458ZM234.126 61.2074C233.81 63.4186 233.66 67.8024 233.66 74.2799H235.802C235.802 67.7757 235.956 63.5454 236.246 61.5103L234.126 61.2074ZM233.66 74.2799V93.5704H235.802V74.2799H233.66ZM233.66 93.5704C233.66 101.46 235.412 107.438 239.154 111.246L240.682 109.745C237.508 106.515 235.802 101.21 235.802 93.5704H233.66ZM239.167 111.259C242.924 114.951 247.915 116.753 254.022 116.753V114.611C248.36 114.611 243.949 112.955 240.668 109.731L239.167 111.259ZM254.022 116.753C260.157 116.753 265.316 114.782 269.417 110.809L267.927 109.271C264.262 112.821 259.655 114.611 254.022 114.611V116.753ZM269.423 110.803C273.588 106.704 275.566 100.489 275.566 92.3875H273.424C273.424 100.179 271.52 105.733 267.92 109.277L269.423 110.803ZM275.566 92.3875V74.3709H273.424V92.3875H275.566ZM275.566 74.3709C275.566 68.2982 275.295 63.8368 274.725 61.0532L272.627 61.4824C273.15 64.0372 273.424 68.3111 273.424 74.3709H275.566ZM274.725 61.0532C274.165 58.312 273.175 56.2016 271.51 55.1707L270.383 56.9918C271.265 57.5381 272.096 58.8854 272.627 61.4824L274.725 61.0532ZM271.561 55.2039C270.06 54.1536 267.677 53.7364 264.668 53.7364V55.8782C267.604 55.8782 269.406 56.3104 270.332 56.9585L271.561 55.2039ZM265.724 54.6313L265.542 53.5394L263.43 53.8915L263.612 54.9834L265.724 54.6313ZM264.486 54.7863H286.87V52.6445H264.486V54.7863ZM285.814 53.5394L285.632 54.6313L287.745 54.9834L287.927 53.8915L285.814 53.5394ZM286.688 53.7364C283.671 53.7364 281.275 54.1566 279.725 55.1902L280.913 56.9723C281.91 56.3073 283.76 55.8782 286.688 55.8782V53.7364ZM279.735 55.1834C278.152 56.2121 277.164 58.3048 276.545 61.0305L278.633 61.5052C279.227 58.8926 280.059 57.5276 280.902 56.9791L279.735 55.1834ZM276.54 61.0532C275.97 63.8368 275.699 68.2982 275.699 74.3709H277.841C277.841 68.3111 278.116 64.0372 278.638 61.4824L276.54 61.0532ZM338.645 61.9048L337.876 62.6503L337.884 62.6581L338.645 61.9048ZM340.465 107.037L339.613 106.388L339.612 106.389L340.465 107.037ZM321.356 117.866L321.206 116.805L321.113 118.908L321.356 117.866ZM331.092 121.687L330.649 122.662L330.654 122.664L331.092 121.687ZM355.205 121.232L355.992 120.506L355.367 119.829L354.604 120.346L355.205 121.232ZM356.297 122.415L357.086 123.14L357.753 122.414L357.084 121.689L356.297 122.415ZM349.564 127.693L349.066 126.745L349.052 126.752L349.038 126.76L349.564 127.693ZM330.91 127.238L330.458 128.209L330.465 128.212L330.91 127.238ZM320.082 122.324L319.649 123.304L319.649 123.304L320.082 122.324ZM304.249 120.868L303.21 121.128L303.491 122.25L304.588 121.884L304.249 120.868ZM303.794 119.049L303.336 118.081L302.542 118.457L302.755 119.308L303.794 119.049ZM309.527 117.775L309.648 118.839L309.712 116.72L309.527 117.775ZM290.6 106.673L289.752 107.327L289.755 107.331L290.6 106.673ZM292.056 61.8138L291.283 61.0725L291.279 61.0767L292.056 61.8138ZM333.458 107.856L332.589 107.23L332.588 107.232L333.458 107.856ZM333.185 63.4517L334.041 62.8077L334.041 62.8077L333.185 63.4517ZM297.516 63.3607L296.65 62.7302L296.646 62.7365L297.516 63.3607ZM297.88 107.765L297.024 108.409L297.024 108.409L297.88 107.765ZM315.259 53.9674C324.789 53.9674 332.288 56.8877 337.876 62.6503L339.413 61.1593C333.354 54.9108 325.263 51.8256 315.259 51.8256V53.9674ZM337.884 62.6581C343.552 68.3854 346.4 75.5985 346.4 84.3801H348.542C348.542 75.0844 345.505 67.314 339.406 61.1515L337.884 62.6581ZM346.4 84.3801C346.4 93.1638 344.119 100.478 339.613 106.388L341.316 107.687C346.152 101.344 348.542 93.5524 348.542 84.3801H346.4ZM339.612 106.389C335.186 112.213 329.079 115.689 321.206 116.805L321.506 118.926C329.89 117.737 336.522 113.995 341.317 107.685L339.612 106.389ZM321.113 118.908C322.814 119.306 325.968 120.534 330.649 122.662L331.535 120.712C326.874 118.594 323.537 117.275 321.599 116.823L321.113 118.908ZM330.654 122.664C335.479 124.83 339.938 125.943 344.013 125.943V123.801C340.324 123.801 336.168 122.791 331.531 120.71L330.654 122.664ZM344.013 125.943C348.134 125.943 352.071 124.651 355.806 122.119L354.604 120.346C351.182 122.666 347.657 123.801 344.013 123.801V125.943ZM354.419 121.959L355.51 123.142L357.084 121.689L355.992 120.506L354.419 121.959ZM355.509 121.691C353.52 123.855 351.372 125.534 349.066 126.745L350.062 128.641C352.609 127.304 354.949 125.465 357.086 123.14L355.509 121.691ZM349.038 126.76C346.862 127.987 344.231 128.624 341.101 128.624V130.766C344.524 130.766 347.534 130.068 350.09 128.626L349.038 126.76ZM341.101 128.624C338.071 128.624 334.826 127.852 331.356 126.264L330.465 128.212C334.153 129.9 337.702 130.766 341.101 130.766V128.624ZM331.362 126.267C327.837 124.626 324.222 122.986 320.515 121.345L319.649 123.304C323.343 124.939 326.946 126.574 330.458 128.209L331.362 126.267ZM320.515 121.345C316.758 119.682 313.535 118.797 310.892 118.797V120.938C313.101 120.938 316.005 121.691 319.649 123.304L320.515 121.345ZM310.892 118.797C308.367 118.797 306.037 119.144 303.911 119.852L304.588 121.884C306.466 121.258 308.563 120.938 310.892 120.938V118.797ZM305.288 120.609L304.833 118.789L302.755 119.308L303.21 121.128L305.288 120.609ZM304.253 120.016C305.235 119.551 306.996 119.14 309.648 118.839L309.406 116.711C306.72 117.016 304.658 117.454 303.336 118.081L304.253 120.016ZM309.712 116.72C302.01 115.368 295.943 111.798 291.446 106.016L289.755 107.331C294.6 113.56 301.151 117.391 309.342 118.829L309.712 116.72ZM291.449 106.02C286.945 100.171 284.665 92.9196 284.665 84.1981H282.523C282.523 93.3113 284.914 101.044 289.752 107.327L291.449 106.02ZM284.665 84.1981C284.665 75.4659 287.399 68.2771 292.833 62.551L291.279 61.0767C285.43 67.2403 282.523 74.9744 282.523 84.1981H284.665ZM292.829 62.5551C298.292 56.8596 305.726 53.9674 315.259 53.9674V51.8256C305.26 51.8256 297.225 54.8782 291.283 61.0725L292.829 62.5551ZM315.805 117.299C323.863 117.299 330.095 114.382 334.328 108.481L332.588 107.232C328.814 112.493 323.277 115.157 315.805 115.157V117.299ZM334.327 108.482C338.559 102.608 340.625 94.9679 340.625 85.654H338.484C338.484 94.6601 336.486 101.821 332.589 107.23L334.327 108.482ZM340.625 85.654C340.625 76.331 338.463 68.6835 334.041 62.8077L332.329 64.0957C336.4 69.503 338.484 76.6571 338.484 85.654H340.625ZM334.041 62.8077C329.57 56.8678 323.231 53.9184 315.168 53.9184V56.0602C322.635 56.0602 328.308 58.7524 332.329 64.0957L334.041 62.8077ZM315.168 53.9184C307.168 53.9184 300.942 56.8375 296.65 62.7303L298.381 63.9911C302.219 58.722 307.761 56.0602 315.168 56.0602V53.9184ZM296.646 62.7365C292.473 68.5524 290.439 76.194 290.439 85.563H292.581C292.581 76.4907 294.551 69.3308 298.386 63.9849L296.646 62.7365ZM290.439 85.563C290.439 94.8861 292.601 102.534 297.024 108.409L298.735 107.121C294.665 101.714 292.581 94.5599 292.581 85.563H290.439ZM297.024 108.409C301.493 114.347 307.8 117.299 315.805 117.299V115.157C308.402 115.157 302.759 112.467 298.735 107.121L297.024 108.409Z" fill="url(#paint2_linear_3220_28931)" mask="url(#path-3-outside-1_3220_28931)"/>
<g clip-path="url(#clip1_3220_28931)">
<rect y="173.484" width="372.668" height="3.21266" fill="url(#paint3_linear_3220_28931)"/>
</g>
<path fill-rule="evenodd" clip-rule="evenodd" d="M449.771 49.2602C449.771 64.046 437.785 76.0323 422.999 76.0323C408.213 76.0323 396.227 64.046 396.227 49.2602C396.227 34.4743 408.213 22.488 422.999 22.488C437.785 22.488 449.771 34.4743 449.771 49.2602ZM435.351 89.1678C452.387 83.9008 464.763 68.0258 464.763 49.2602C464.763 26.1942 446.065 7.49561 422.999 7.49561C399.933 7.49561 381.234 26.1942 381.234 49.2602C381.234 68.5919 394.369 84.856 412.201 89.6153L401.587 171.341H444.422L435.351 89.1678Z" fill="url(#paint4_linear_3220_28931)"/>
<g clip-path="url(#clip2_3220_28931)">
<rect x="473.332" width="372.668" height="3.21266" fill="url(#paint5_linear_3220_28931)"/>
</g>
<mask id="path-10-outside-2_3220_28931" maskUnits="userSpaceOnUse" x="515.332" y="51.9189" width="288" height="67" fill="black">
<rect fill="white" x="515.332" y="51.9189" width="288" height="67"/>
<path d="M566.142 116.919C563.048 116.919 559.166 113.31 554.495 106.091C552.493 103.058 550.4 100.025 548.216 96.9914C546.093 93.9583 543.697 91.3499 541.028 89.166C538.359 86.9822 535.69 85.8599 533.02 85.7993V96.3545C533.02 105.454 533.445 110.913 534.294 112.733C534.658 113.461 535.204 114.098 535.932 114.644C536.66 115.19 537.449 115.524 538.298 115.645C539.208 115.766 540.391 115.827 541.847 115.827L542.029 116.919H517.552L517.734 115.827C520.767 115.827 522.981 115.251 524.376 114.098C525.893 112.824 526.651 106.91 526.651 96.3545V73.7882C526.651 67.2973 526.439 62.869 526.014 60.5032C525.65 58.0767 525.104 56.5601 524.376 55.9535C522.981 54.8009 520.767 54.2246 517.734 54.2246L517.552 53.2237H542.029L541.847 54.2246C540.391 54.2246 539.208 54.2853 538.298 54.4066C537.449 54.5279 536.66 54.8616 535.932 55.4075C535.204 55.9535 534.658 56.5905 534.294 57.3184C533.991 58.0464 533.748 59.2293 533.566 60.8671C533.202 63.5363 533.02 67.8433 533.02 73.7882V84.1614C535.629 83.7368 538.723 82.0382 542.302 79.0658C545.941 76.0327 549.126 72.4536 551.856 68.3286C554.586 64.1429 555.951 60.4425 555.951 57.2274C555.951 56.1962 555.617 55.4379 554.95 54.9526C554.343 54.4673 553.191 54.2246 551.492 54.2246L551.31 53.2237H573.876L573.694 54.2246C567.325 54.2246 562.563 56.4388 559.408 60.8671C557.892 63.051 556.436 65.3561 555.041 67.7826C553.646 70.1484 551.522 72.9086 548.671 76.063C545.881 79.1568 542.544 81.9472 538.662 84.4344C544.546 84.7983 549.339 87.0732 553.039 91.2589C555.283 93.6854 557.68 96.9308 560.227 100.995C562.836 105.059 564.868 108.002 566.324 109.821C569.721 113.825 573.816 115.827 578.608 115.827L578.79 116.919H566.142ZM614.092 115.827C616.398 115.827 618.005 115.645 618.915 115.281C619.886 114.917 620.371 113.977 620.371 112.46C620.371 110.944 618.763 105.787 615.548 96.9914H587.795C585.187 104.696 583.883 109.548 583.883 111.55C583.883 113.492 584.368 114.705 585.339 115.19C586.37 115.615 588.19 115.827 590.798 115.827L590.98 116.919H570.507L570.689 115.827C572.448 115.827 573.813 115.675 574.783 115.372C575.815 115.069 576.907 114.28 578.059 113.006C579.272 111.672 580.425 109.761 581.517 107.274C582.609 104.787 583.913 101.298 585.43 96.8094L593.528 73.4242C596.379 65.1742 597.805 60.1695 597.805 58.4103C597.805 56.6511 597.38 55.5289 596.531 55.0436C595.682 54.4976 594.044 54.2246 591.617 54.2246L591.435 53.2237H606.449L622.555 96.8094C625.285 104.028 627.105 108.608 628.014 110.549C628.985 112.491 629.895 113.734 630.744 114.28C632.261 115.311 634.172 115.827 636.477 115.827L636.659 116.919H613.91L614.092 115.827ZM601.353 58.1373L588.523 94.8076H614.82L601.353 58.1373ZM681.543 116.919H638.049L638.231 115.827C639.686 115.827 640.839 115.766 641.688 115.645C642.598 115.524 643.417 115.19 644.145 114.644C644.873 114.098 645.389 113.492 645.692 112.824C646.056 112.096 646.359 110.913 646.602 109.276C646.905 107.152 647.057 102.845 647.057 96.3545V73.7882C647.057 64.7495 646.632 59.2596 645.783 57.3184C644.994 55.6199 643.66 54.6493 641.779 54.4066C640.869 54.2853 639.686 54.2246 638.231 54.2246L638.049 53.2237H662.526L662.344 54.2246C659.311 54.2246 657.096 54.8009 655.701 55.9535C654.185 57.2274 653.426 63.1723 653.426 73.7882V97.7194C653.426 104.271 653.639 108.639 654.063 110.822C654.488 112.946 655.489 114.371 657.066 115.099C672.717 115.099 680.542 111.368 680.542 103.907L681.543 103.725V116.919ZM703.81 73.7882V96.3545C703.81 102.845 703.992 107.274 704.356 109.639C704.781 112.005 705.357 113.492 706.085 114.098C707.48 115.251 709.695 115.827 712.728 115.827L712.91 116.919H688.341L688.523 115.827C690.04 115.827 691.223 115.766 692.072 115.645C692.921 115.524 693.71 115.19 694.438 114.644C695.227 114.098 695.773 113.492 696.076 112.824C696.44 112.096 696.743 110.913 696.986 109.276C697.289 107.152 697.441 102.845 697.441 96.3545V73.7882C697.441 67.4793 697.259 63.0813 696.895 60.5942C696.531 58.107 695.985 56.5601 695.257 55.9535C693.801 54.8009 691.557 54.2246 688.523 54.2246L688.341 53.2237H712.91L712.728 54.2246C709.695 54.2246 707.48 54.8009 706.085 55.9535C704.569 57.2274 703.81 63.1723 703.81 73.7882ZM718.835 53.2237H771.247V66.3267L770.337 66.1447C770.337 58.744 762.997 55.0436 748.317 55.0436V96.3545C748.317 105.332 748.832 110.792 749.864 112.733C750.228 113.461 750.864 114.098 751.774 114.644C752.684 115.19 753.655 115.524 754.686 115.645C755.717 115.766 757.143 115.827 758.963 115.827L759.145 116.919H731.119L731.301 115.827C733.121 115.827 734.546 115.797 735.578 115.736C736.67 115.615 737.64 115.251 738.489 114.644C739.399 114.037 740.036 113.401 740.4 112.733C740.825 112.066 741.189 110.883 741.492 109.185C741.795 107.122 741.947 102.845 741.947 96.3545V55.0436C727.267 55.0436 719.927 58.744 719.927 66.1447L718.835 66.3267V53.2237ZM792.671 73.7882V96.3545C792.671 102.845 792.853 107.274 793.217 109.639C793.641 112.005 794.218 113.492 794.946 114.098C796.341 115.251 798.555 115.827 801.588 115.827L801.77 116.919H777.202L777.384 115.827C778.901 115.827 780.083 115.766 780.933 115.645C781.782 115.524 782.571 115.19 783.299 114.644C784.087 114.098 784.633 113.492 784.936 112.824C785.3 112.096 785.604 110.913 785.846 109.276C786.15 107.152 786.301 102.845 786.301 96.3545V73.7882C786.301 67.4793 786.119 63.0813 785.755 60.5942C785.391 58.107 784.845 56.5601 784.118 55.9535C782.662 54.8009 780.417 54.2246 777.384 54.2246L777.202 53.2237H801.77L801.588 54.2246C798.555 54.2246 796.341 54.8009 794.946 55.9535C793.429 57.2274 792.671 63.1723 792.671 73.7882Z"/>
</mask>
<path d="M566.142 116.919C563.048 116.919 559.166 113.31 554.495 106.091C552.493 103.058 550.4 100.025 548.216 96.9914C546.093 93.9583 543.697 91.3499 541.028 89.166C538.359 86.9822 535.69 85.8599 533.02 85.7993V96.3545C533.02 105.454 533.445 110.913 534.294 112.733C534.658 113.461 535.204 114.098 535.932 114.644C536.66 115.19 537.449 115.524 538.298 115.645C539.208 115.766 540.391 115.827 541.847 115.827L542.029 116.919H517.552L517.734 115.827C520.767 115.827 522.981 115.251 524.376 114.098C525.893 112.824 526.651 106.91 526.651 96.3545V73.7882C526.651 67.2973 526.439 62.869 526.014 60.5032C525.65 58.0767 525.104 56.5601 524.376 55.9535C522.981 54.8009 520.767 54.2246 517.734 54.2246L517.552 53.2237H542.029L541.847 54.2246C540.391 54.2246 539.208 54.2853 538.298 54.4066C537.449 54.5279 536.66 54.8616 535.932 55.4075C535.204 55.9535 534.658 56.5905 534.294 57.3184C533.991 58.0464 533.748 59.2293 533.566 60.8671C533.202 63.5363 533.02 67.8433 533.02 73.7882V84.1614C535.629 83.7368 538.723 82.0382 542.302 79.0658C545.941 76.0327 549.126 72.4536 551.856 68.3286C554.586 64.1429 555.951 60.4425 555.951 57.2274C555.951 56.1962 555.617 55.4379 554.95 54.9526C554.343 54.4673 553.191 54.2246 551.492 54.2246L551.31 53.2237H573.876L573.694 54.2246C567.325 54.2246 562.563 56.4388 559.408 60.8671C557.892 63.051 556.436 65.3561 555.041 67.7826C553.646 70.1484 551.522 72.9086 548.671 76.063C545.881 79.1568 542.544 81.9472 538.662 84.4344C544.546 84.7983 549.339 87.0732 553.039 91.2589C555.283 93.6854 557.68 96.9308 560.227 100.995C562.836 105.059 564.868 108.002 566.324 109.821C569.721 113.825 573.816 115.827 578.608 115.827L578.79 116.919H566.142ZM614.092 115.827C616.398 115.827 618.005 115.645 618.915 115.281C619.886 114.917 620.371 113.977 620.371 112.46C620.371 110.944 618.763 105.787 615.548 96.9914H587.795C585.187 104.696 583.883 109.548 583.883 111.55C583.883 113.492 584.368 114.705 585.339 115.19C586.37 115.615 588.19 115.827 590.798 115.827L590.98 116.919H570.507L570.689 115.827C572.448 115.827 573.813 115.675 574.783 115.372C575.815 115.069 576.907 114.28 578.059 113.006C579.272 111.672 580.425 109.761 581.517 107.274C582.609 104.787 583.913 101.298 585.43 96.8094L593.528 73.4242C596.379 65.1742 597.805 60.1695 597.805 58.4103C597.805 56.6511 597.38 55.5289 596.531 55.0436C595.682 54.4976 594.044 54.2246 591.617 54.2246L591.435 53.2237H606.449L622.555 96.8094C625.285 104.028 627.105 108.608 628.014 110.549C628.985 112.491 629.895 113.734 630.744 114.28C632.261 115.311 634.172 115.827 636.477 115.827L636.659 116.919H613.91L614.092 115.827ZM601.353 58.1373L588.523 94.8076H614.82L601.353 58.1373ZM681.543 116.919H638.049L638.231 115.827C639.686 115.827 640.839 115.766 641.688 115.645C642.598 115.524 643.417 115.19 644.145 114.644C644.873 114.098 645.389 113.492 645.692 112.824C646.056 112.096 646.359 110.913 646.602 109.276C646.905 107.152 647.057 102.845 647.057 96.3545V73.7882C647.057 64.7495 646.632 59.2596 645.783 57.3184C644.994 55.6199 643.66 54.6493 641.779 54.4066C640.869 54.2853 639.686 54.2246 638.231 54.2246L638.049 53.2237H662.526L662.344 54.2246C659.311 54.2246 657.096 54.8009 655.701 55.9535C654.185 57.2274 653.426 63.1723 653.426 73.7882V97.7194C653.426 104.271 653.639 108.639 654.063 110.822C654.488 112.946 655.489 114.371 657.066 115.099C672.717 115.099 680.542 111.368 680.542 103.907L681.543 103.725V116.919ZM703.81 73.7882V96.3545C703.81 102.845 703.992 107.274 704.356 109.639C704.781 112.005 705.357 113.492 706.085 114.098C707.48 115.251 709.695 115.827 712.728 115.827L712.91 116.919H688.341L688.523 115.827C690.04 115.827 691.223 115.766 692.072 115.645C692.921 115.524 693.71 115.19 694.438 114.644C695.227 114.098 695.773 113.492 696.076 112.824C696.44 112.096 696.743 110.913 696.986 109.276C697.289 107.152 697.441 102.845 697.441 96.3545V73.7882C697.441 67.4793 697.259 63.0813 696.895 60.5942C696.531 58.107 695.985 56.5601 695.257 55.9535C693.801 54.8009 691.557 54.2246 688.523 54.2246L688.341 53.2237H712.91L712.728 54.2246C709.695 54.2246 707.48 54.8009 706.085 55.9535C704.569 57.2274 703.81 63.1723 703.81 73.7882ZM718.835 53.2237H771.247V66.3267L770.337 66.1447C770.337 58.744 762.997 55.0436 748.317 55.0436V96.3545C748.317 105.332 748.832 110.792 749.864 112.733C750.228 113.461 750.864 114.098 751.774 114.644C752.684 115.19 753.655 115.524 754.686 115.645C755.717 115.766 757.143 115.827 758.963 115.827L759.145 116.919H731.119L731.301 115.827C733.121 115.827 734.546 115.797 735.578 115.736C736.67 115.615 737.64 115.251 738.489 114.644C739.399 114.037 740.036 113.401 740.4 112.733C740.825 112.066 741.189 110.883 741.492 109.185C741.795 107.122 741.947 102.845 741.947 96.3545V55.0436C727.267 55.0436 719.927 58.744 719.927 66.1447L718.835 66.3267V53.2237ZM792.671 73.7882V96.3545C792.671 102.845 792.853 107.274 793.217 109.639C793.641 112.005 794.218 113.492 794.946 114.098C796.341 115.251 798.555 115.827 801.588 115.827L801.77 116.919H777.202L777.384 115.827C778.901 115.827 780.083 115.766 780.933 115.645C781.782 115.524 782.571 115.19 783.299 114.644C784.087 114.098 784.633 113.492 784.936 112.824C785.3 112.096 785.604 110.913 785.846 109.276C786.15 107.152 786.301 102.845 786.301 96.3545V73.7882C786.301 67.4793 786.119 63.0813 785.755 60.5942C785.391 58.107 784.845 56.5601 784.118 55.9535C782.662 54.8009 780.417 54.2246 777.384 54.2246L777.202 53.2237H801.77L801.588 54.2246C798.555 54.2246 796.341 54.8009 794.946 55.9535C793.429 57.2274 792.671 63.1723 792.671 73.7882Z" fill="url(#paint6_linear_3220_28931)"/>
<path d="M554.495 106.091L555.394 105.509L555.389 105.501L554.495 106.091ZM548.216 96.9914L547.339 97.6055L547.343 97.6114L547.347 97.6172L548.216 96.9914ZM541.028 89.166L540.35 89.9948L540.35 89.9948L541.028 89.166ZM533.02 85.7993L533.045 84.7287L531.95 84.7038V85.7993H533.02ZM534.294 112.733L533.324 113.186L533.33 113.199L533.336 113.212L534.294 112.733ZM535.932 114.644L535.29 115.501L535.29 115.501L535.932 114.644ZM538.298 115.645L538.147 116.705L538.156 116.707L538.298 115.645ZM541.847 115.827L542.903 115.651L542.754 114.756H541.847V115.827ZM542.029 116.919V117.99H543.293L543.085 116.743L542.029 116.919ZM517.552 116.919L516.495 116.743L516.287 117.99H517.552V116.919ZM517.734 115.827V114.756H516.826L516.677 115.651L517.734 115.827ZM524.376 114.098L525.058 114.924L525.065 114.918L524.376 114.098ZM526.014 60.5032L524.955 60.662L524.957 60.6772L524.96 60.6924L526.014 60.5032ZM524.376 55.9535L525.062 55.1308L525.058 55.1279L524.376 55.9535ZM517.734 54.2246L516.68 54.4162L516.84 55.2955H517.734V54.2246ZM517.552 53.2237V52.1528H516.268L516.498 53.4153L517.552 53.2237ZM542.029 53.2237L543.082 53.4153L543.312 52.1528H542.029V53.2237ZM541.847 54.2246V55.2955H542.74L542.9 54.4162L541.847 54.2246ZM538.298 54.4066L538.156 53.3451L538.147 53.3465L538.298 54.4066ZM534.294 57.3184L533.336 56.8395L533.32 56.8725L533.306 56.9065L534.294 57.3184ZM533.566 60.8671L534.627 61.0118L534.629 60.9986L534.631 60.9854L533.566 60.8671ZM533.02 84.1614H531.95V85.4207L533.192 85.2184L533.02 84.1614ZM542.302 79.0658L542.986 79.8896L542.987 79.8885L542.302 79.0658ZM551.856 68.3286L552.749 68.9196L552.753 68.9136L551.856 68.3286ZM554.95 54.9526L554.281 55.7888L554.3 55.8042L554.32 55.8186L554.95 54.9526ZM551.492 54.2246L550.438 54.4162L550.598 55.2955H551.492V54.2246ZM551.31 53.2237V52.1528H550.027L550.256 53.4153L551.31 53.2237ZM573.876 53.2237L574.93 53.4153L575.159 52.1528H573.876V53.2237ZM573.694 54.2246V55.2955H574.588L574.748 54.4162L573.694 54.2246ZM559.408 60.8671L558.536 60.2458L558.529 60.2563L559.408 60.8671ZM555.041 67.7826L555.963 68.3266L555.969 68.3164L555.041 67.7826ZM548.671 76.063L547.877 75.3449L547.876 75.3458L548.671 76.063ZM538.662 84.4344L538.084 83.5327L535.324 85.3008L538.596 85.5032L538.662 84.4344ZM553.039 91.2589L552.237 91.9682L552.245 91.9772L552.253 91.986L553.039 91.2589ZM560.227 100.995L559.32 101.564L559.326 101.574L560.227 100.995ZM566.324 109.821L565.488 110.49L565.497 110.503L565.507 110.514L566.324 109.821ZM578.608 115.827L579.664 115.651L579.515 114.756H578.608V115.827ZM578.79 116.919V117.99H580.054L579.846 116.743L578.79 116.919ZM566.142 115.848C565.003 115.848 563.513 115.17 561.639 113.428C559.79 111.709 557.707 109.084 555.394 105.509L553.596 106.673C555.953 110.316 558.147 113.106 560.181 114.996C562.189 116.864 564.187 117.99 566.142 117.99V115.848ZM555.389 105.501C553.378 102.455 551.277 99.4103 549.085 96.3657L547.347 97.6172C549.523 100.639 551.607 103.66 553.601 106.681L555.389 105.501ZM549.094 96.3773C546.918 93.2697 544.456 90.5875 541.706 88.3372L540.35 89.9948C542.938 92.1122 545.268 94.6469 547.339 97.6055L549.094 96.3773ZM541.706 88.3372C538.906 86.0466 536.015 84.7962 533.045 84.7287L532.996 86.8699C535.365 86.9237 537.811 87.9177 540.35 89.9948L541.706 88.3372ZM531.95 85.7993V96.3545H534.091V85.7993H531.95ZM531.95 96.3545C531.95 100.916 532.056 104.587 532.271 107.357C532.379 108.741 532.515 109.915 532.682 110.871C532.846 111.809 533.051 112.602 533.324 113.186L535.265 112.28C535.113 111.954 534.946 111.382 534.792 110.501C534.641 109.637 534.511 108.536 534.407 107.191C534.197 104.501 534.091 100.892 534.091 96.3545H531.95ZM533.336 113.212C533.783 114.106 534.445 114.867 535.29 115.501L536.575 113.787C535.964 113.329 535.533 112.817 535.252 112.254L533.336 113.212ZM535.29 115.501C536.153 116.148 537.108 116.557 538.147 116.705L538.449 114.585C537.789 114.491 537.168 114.232 536.575 113.787L535.29 115.501ZM538.156 116.707C539.132 116.837 540.367 116.898 541.847 116.898V114.756C540.414 114.756 539.284 114.696 538.44 114.584L538.156 116.707ZM540.79 116.003L540.972 117.095L543.085 116.743L542.903 115.651L540.79 116.003ZM542.029 115.848H517.552V117.99H542.029V115.848ZM518.608 117.095L518.79 116.003L516.677 115.651L516.495 116.743L518.608 117.095ZM517.734 116.898C520.861 116.898 523.378 116.311 525.058 114.924L523.694 113.273C522.583 114.19 520.672 114.756 517.734 114.756V116.898ZM525.065 114.918C525.686 114.396 526.093 113.541 526.392 112.596C526.704 111.612 526.951 110.353 527.144 108.843C527.532 105.819 527.722 101.649 527.722 96.3545H525.58C525.58 101.615 525.391 105.68 525.02 108.571C524.834 110.018 524.608 111.136 524.35 111.95C524.081 112.802 523.824 113.163 523.687 113.278L525.065 114.918ZM527.722 96.3545V73.7882H525.58V96.3545H527.722ZM527.722 73.7882C527.722 67.3059 527.512 62.7867 527.068 60.314L524.96 60.6924C525.365 62.9513 525.58 67.2887 525.58 73.7882H527.722ZM527.073 60.3443C526.885 59.0936 526.645 58.0323 526.339 57.1832C526.041 56.3563 525.641 55.6141 525.062 55.1308L523.69 56.7762C523.839 56.8996 524.076 57.219 524.324 57.9086C524.564 58.5761 524.779 59.4863 524.955 60.662L527.073 60.3443ZM525.058 55.1279C523.378 53.7404 520.861 53.1538 517.734 53.1538V55.2955C520.672 55.2955 522.583 55.8615 523.694 56.7791L525.058 55.1279ZM518.787 54.0331L518.605 53.0321L516.498 53.4153L516.68 54.4162L518.787 54.0331ZM517.552 54.2946H542.029V52.1528H517.552V54.2946ZM540.975 53.0321L540.793 54.0331L542.9 54.4162L543.082 53.4153L540.975 53.0321ZM541.847 53.1538C540.367 53.1538 539.132 53.215 538.156 53.3451L538.44 55.4681C539.284 55.3556 540.414 55.2955 541.847 55.2955V53.1538ZM538.147 53.3465C537.108 53.4948 536.153 53.9036 535.29 54.5508L536.575 56.2643C537.168 55.8195 537.789 55.5611 538.449 55.4667L538.147 53.3465ZM535.29 54.5508C534.445 55.1846 533.783 55.9461 533.336 56.8395L535.252 57.7973C535.533 57.2349 535.964 56.7224 536.575 56.2643L535.29 54.5508ZM533.306 56.9065C532.94 57.7835 532.686 59.095 532.502 60.7489L534.631 60.9854C534.811 59.3635 535.042 58.3092 535.283 57.7303L533.306 56.9065ZM532.505 60.7224C532.131 63.4689 531.95 67.8383 531.95 73.7882H534.091C534.091 67.8483 534.274 63.6036 534.627 61.0118L532.505 60.7224ZM531.95 73.7882V84.1614H534.091V73.7882H531.95ZM533.192 85.2184C536.084 84.7477 539.357 82.9036 542.986 79.8896L541.618 78.242C538.088 81.1729 535.174 82.7258 532.848 83.1044L533.192 85.2184ZM542.987 79.8885C546.711 76.7857 549.964 73.1277 552.749 68.9196L550.963 67.7376C548.288 71.7795 545.172 75.2796 541.616 78.2431L542.987 79.8885ZM552.753 68.9136C555.538 64.6429 557.022 60.7357 557.022 57.2274H554.88C554.88 60.1493 553.633 63.6429 550.959 67.7436L552.753 68.9136ZM557.022 57.2274C557.022 55.949 556.593 54.8236 555.58 54.0865L554.32 55.8186C554.641 56.0522 554.88 56.4433 554.88 57.2274H557.022ZM555.619 54.1164C555.134 53.7289 554.514 53.4983 553.851 53.3587C553.178 53.217 552.386 53.1538 551.492 53.1538V55.2955C552.297 55.2955 552.93 55.3536 553.41 55.4545C553.899 55.5576 554.158 55.6909 554.281 55.7888L555.619 54.1164ZM552.546 54.0331L552.364 53.0321L550.256 53.4153L550.438 54.4162L552.546 54.0331ZM551.31 54.2946H573.876V52.1528H551.31V54.2946ZM572.823 53.0321L572.641 54.0331L574.748 54.4162L574.93 53.4153L572.823 53.0321ZM573.694 53.1538C567.046 53.1538 561.928 55.4843 558.536 60.2458L560.281 61.4884C563.198 57.3933 567.603 55.2955 573.694 55.2955V53.1538ZM558.529 60.2563C556.994 62.4664 555.522 64.7973 554.112 67.2488L555.969 68.3164C557.35 65.9149 558.79 63.6356 560.288 61.478L558.529 60.2563ZM554.118 67.2386C552.774 69.5182 550.703 72.2184 547.877 75.3449L549.466 76.7811C552.342 73.5988 554.517 70.7787 555.963 68.3266L554.118 67.2386ZM547.876 75.3458C545.156 78.3615 541.895 81.0916 538.084 83.5327L539.24 85.3361C543.194 82.8029 546.606 79.952 549.466 76.7802L547.876 75.3458ZM538.596 85.5032C544.214 85.8507 548.735 88.0079 552.237 91.9682L553.841 90.5496C549.942 86.1385 544.878 83.746 538.728 83.3655L538.596 85.5032ZM552.253 91.986C554.437 94.3472 556.793 97.5332 559.32 101.564L561.135 100.426C558.566 96.3284 556.13 93.0235 553.825 90.5317L552.253 91.986ZM559.326 101.574C561.938 105.644 563.995 108.625 565.488 110.49L567.16 109.152C565.741 107.378 563.733 104.475 561.129 100.417L559.326 101.574ZM565.507 110.514C569.086 114.732 573.469 116.898 578.608 116.898V114.756C574.163 114.756 570.356 112.918 567.14 109.129L565.507 110.514ZM577.552 116.003L577.734 117.095L579.846 116.743L579.664 115.651L577.552 116.003ZM578.79 115.848H566.142V117.99H578.79V115.848ZM614.092 115.827V114.756H613.185L613.036 115.651L614.092 115.827ZM618.915 115.281L618.539 114.278L618.528 114.282L618.517 114.287L618.915 115.281ZM615.548 96.9914L616.554 96.6238L616.297 95.9206H615.548V96.9914ZM587.795 96.9914V95.9206H587.027L586.781 96.648L587.795 96.9914ZM585.339 115.19L584.86 116.148L584.895 116.165L584.931 116.18L585.339 115.19ZM590.798 115.827L591.855 115.651L591.705 114.756H590.798V115.827ZM590.98 116.919V117.99H592.244L592.037 116.743L590.98 116.919ZM570.507 116.919L569.45 116.743L569.243 117.99H570.507V116.919ZM570.689 115.827V114.756H569.782L569.632 115.651L570.689 115.827ZM574.783 115.372L574.481 114.345L574.473 114.347L574.464 114.35L574.783 115.372ZM578.059 113.006L577.267 112.286L577.265 112.288L578.059 113.006ZM581.517 107.274L580.536 106.843L580.536 106.843L581.517 107.274ZM585.43 96.8094L584.418 96.459L584.415 96.4667L585.43 96.8094ZM593.528 73.4242L594.54 73.7746L594.54 73.774L593.528 73.4242ZM596.531 55.0436L595.952 55.9444L595.975 55.9595L595.999 55.9734L596.531 55.0436ZM591.617 54.2246L590.564 54.4162L590.723 55.2955H591.617V54.2246ZM591.435 53.2237V52.1528H590.152L590.382 53.4153L591.435 53.2237ZM606.449 53.2237L607.454 52.8525L607.195 52.1528H606.449V53.2237ZM622.555 96.8094L621.55 97.1806L621.553 97.1882L622.555 96.8094ZM628.014 110.549L627.045 111.004L627.051 111.016L627.057 111.028L628.014 110.549ZM630.744 114.28L631.346 113.395L631.335 113.387L631.323 113.379L630.744 114.28ZM636.477 115.827L637.533 115.651L637.384 114.756H636.477V115.827ZM636.659 116.919V117.99H637.923L637.715 116.743L636.659 116.919ZM613.91 116.919L612.854 116.743L612.646 117.99H613.91V116.919ZM601.353 58.1373L602.359 57.7682L601.329 54.9644L600.343 57.7837L601.353 58.1373ZM588.523 94.8076L587.513 94.4539L587.014 95.8785H588.523V94.8076ZM614.82 94.8076V95.8785H616.355L615.826 94.4384L614.82 94.8076ZM614.092 116.898C616.399 116.898 618.193 116.723 619.313 116.275L618.517 114.287C617.817 114.567 616.397 114.756 614.092 114.756V116.898ZM619.291 116.284C620.87 115.692 621.442 114.178 621.442 112.46H619.3C619.3 113.776 618.901 114.143 618.539 114.278L619.291 116.284ZM621.442 112.46C621.442 111.943 621.313 111.229 621.111 110.39C620.902 109.524 620.593 108.437 620.188 107.137C619.376 104.535 618.164 101.028 616.554 96.6238L614.543 97.3591C616.148 101.751 617.347 105.22 618.143 107.774C618.541 109.052 618.835 110.089 619.028 110.891C619.228 111.72 619.3 112.219 619.3 112.46H621.442ZM615.548 95.9206H587.795V98.0623H615.548V95.9206ZM586.781 96.648C585.473 100.51 584.487 103.674 583.827 106.131C583.176 108.553 582.812 110.391 582.812 111.55H584.954C584.954 110.707 585.242 109.119 585.895 106.687C586.539 104.292 587.509 101.177 588.81 97.3349L586.781 96.648ZM582.812 111.55C582.812 113.568 583.304 115.37 584.86 116.148L585.818 114.232C585.432 114.039 584.954 113.416 584.954 111.55H582.812ZM584.931 116.18C586.177 116.693 588.188 116.898 590.798 116.898V114.756C588.191 114.756 586.563 114.536 585.746 114.2L584.931 116.18ZM589.742 116.003L589.924 117.095L592.037 116.743L591.855 115.651L589.742 116.003ZM590.98 115.848H570.507V117.99H590.98V115.848ZM571.563 117.095L571.745 116.003L569.632 115.651L569.45 116.743L571.563 117.095ZM570.689 116.898C572.489 116.898 573.98 116.745 575.103 116.394L574.464 114.35C573.646 114.606 572.406 114.756 570.689 114.756V116.898ZM575.086 116.399C576.388 116.016 577.64 115.066 578.853 113.725L577.265 112.288C576.173 113.495 575.242 114.121 574.481 114.345L575.086 116.399ZM578.852 113.727C580.172 112.274 581.38 110.249 582.497 107.704L580.536 106.843C579.47 109.272 578.373 111.069 577.267 112.286L578.852 113.727ZM582.497 107.704C583.608 105.175 584.924 101.653 586.444 97.1522L584.415 96.4667C582.902 100.944 581.61 104.398 580.536 106.843L582.497 107.704ZM586.442 97.1599L594.54 73.7746L592.516 73.0738L584.418 96.459L586.442 97.1599ZM594.54 73.774C595.968 69.641 597.045 66.3062 597.765 63.7766C598.471 61.298 598.876 59.464 598.876 58.4103H596.734C596.734 59.1159 596.425 60.6638 595.706 63.1898C595.001 65.6648 593.939 68.9574 592.516 73.0744L594.54 73.774ZM598.876 58.4103C598.876 56.5747 598.446 54.9046 597.062 54.1138L595.999 55.9734C596.314 56.1532 596.734 56.7275 596.734 58.4103H598.876ZM597.11 54.1428C596.509 53.7564 595.723 53.52 594.841 53.3731C593.945 53.2236 592.865 53.1538 591.617 53.1538V55.2955C592.796 55.2955 593.748 55.3622 594.489 55.4857C595.246 55.6117 595.703 55.7848 595.952 55.9444L597.11 54.1428ZM592.671 54.0331L592.489 53.0321L590.382 53.4153L590.564 54.4162L592.671 54.0331ZM591.435 54.2946H606.449V52.1528H591.435V54.2946ZM605.445 53.5949L621.55 97.1806L623.559 96.4383L607.454 52.8525L605.445 53.5949ZM621.553 97.1882C624.279 104.395 626.114 109.018 627.045 111.004L628.984 110.095C628.095 108.199 626.291 103.661 623.557 96.4307L621.553 97.1882ZM627.057 111.028C628.035 112.986 629.052 114.466 630.165 115.181L631.323 113.379C630.737 113.003 629.935 111.996 628.972 110.071L627.057 111.028ZM630.142 115.166C631.877 116.345 634.012 116.898 636.477 116.898V114.756C634.331 114.756 632.645 114.277 631.346 113.395L630.142 115.166ZM635.42 116.003L635.602 117.095L637.715 116.743L637.533 115.651L635.42 116.003ZM636.659 115.848H613.91V117.99H636.659V115.848ZM614.967 117.095L615.149 116.003L613.036 115.651L612.854 116.743L614.967 117.095ZM600.343 57.7837L587.513 94.4539L589.534 95.1613L602.364 58.491L600.343 57.7837ZM588.523 95.8785H614.82V93.7367H588.523V95.8785ZM615.826 94.4384L602.359 57.7682L600.348 58.5065L613.815 95.1768L615.826 94.4384ZM681.543 116.919V117.99H682.614V116.919H681.543ZM638.049 116.919L636.992 116.743L636.784 117.99H638.049V116.919ZM638.231 115.827V114.756H637.323L637.174 115.651L638.231 115.827ZM641.688 115.645L641.547 114.584L641.537 114.585L641.688 115.645ZM644.145 114.644L644.788 115.501L644.788 115.501L644.145 114.644ZM645.692 112.824L644.734 112.345L644.725 112.363L644.717 112.381L645.692 112.824ZM646.602 109.276L647.661 109.432L647.662 109.427L646.602 109.276ZM645.783 57.3184L646.764 56.8892L646.759 56.8783L646.754 56.8674L645.783 57.3184ZM641.779 54.4066L641.638 55.4681L641.642 55.4687L641.779 54.4066ZM638.231 54.2246L637.177 54.4162L637.337 55.2955H638.231V54.2246ZM638.049 53.2237V52.1528H636.765L636.995 53.4153L638.049 53.2237ZM662.526 53.2237L663.579 53.4153L663.809 52.1528H662.526V53.2237ZM662.344 54.2246V55.2955H663.237L663.397 54.4162L662.344 54.2246ZM655.701 55.9535L655.019 55.1279L655.012 55.1335L655.701 55.9535ZM654.063 110.822L653.012 111.027L653.013 111.032L654.063 110.822ZM657.066 115.099L656.617 116.071L656.831 116.17H657.066V115.099ZM680.542 103.907L680.351 102.853L679.471 103.013V103.907H680.542ZM681.543 103.725H682.614V102.442L681.352 102.671L681.543 103.725ZM681.543 115.848H638.049V117.99H681.543V115.848ZM639.105 117.095L639.287 116.003L637.174 115.651L636.992 116.743L639.105 117.095ZM638.231 116.898C639.707 116.898 640.918 116.837 641.84 116.705L641.537 114.585C640.76 114.696 639.665 114.756 638.231 114.756V116.898ZM641.83 116.707C642.92 116.561 643.912 116.158 644.788 115.501L643.503 113.787C642.923 114.222 642.277 114.486 641.547 114.584L641.83 116.707ZM644.788 115.501C645.625 114.873 646.273 114.133 646.667 113.267L644.717 112.381C644.504 112.85 644.121 113.324 643.503 113.787L644.788 115.501ZM646.65 113.303C647.094 112.416 647.415 111.091 647.661 109.432L645.543 109.119C645.303 110.735 645.018 111.777 644.734 112.345L646.65 113.303ZM647.662 109.427C647.978 107.216 648.128 102.832 648.128 96.3545H645.986C645.986 102.859 645.833 107.089 645.542 109.124L647.662 109.427ZM648.128 96.3545V73.7882H645.986V96.3545H648.128ZM648.128 73.7882C648.128 69.2563 648.021 65.5933 647.806 62.8092C647.595 60.0768 647.271 58.047 646.764 56.8892L644.802 57.7476C645.145 58.531 645.457 60.2167 645.671 62.9743C645.88 65.6801 645.986 69.2814 645.986 73.7882H648.128ZM646.754 56.8674C645.809 54.8305 644.156 53.6335 641.916 53.3445L641.642 55.4687C643.164 55.665 644.18 56.4093 644.812 57.7694L646.754 56.8674ZM641.921 53.3451C640.945 53.215 639.71 53.1538 638.231 53.1538V55.2955C639.663 55.2955 640.794 55.3556 641.638 55.4681L641.921 53.3451ZM639.284 54.0331L639.102 53.0321L636.995 53.4153L637.177 54.4162L639.284 54.0331ZM638.049 54.2946H662.526V52.1528H638.049V54.2946ZM661.472 53.0321L661.29 54.0331L663.397 54.4162L663.579 53.4153L661.472 53.0321ZM662.344 53.1538C659.216 53.1538 656.699 53.7404 655.019 55.1279L656.383 56.7791C657.494 55.8615 659.405 55.2955 662.344 55.2955V53.1538ZM655.012 55.1335C654.39 55.6563 653.983 56.5151 653.685 57.4629C653.373 58.4505 653.126 59.7146 652.933 61.2321C652.545 64.2711 652.356 68.4637 652.356 73.7882H654.497C654.497 68.4967 654.687 64.409 655.057 61.5031C655.243 60.0481 655.47 58.9237 655.727 58.1066C655.997 57.2497 656.254 56.8877 656.39 56.7735L655.012 55.1335ZM652.356 73.7882V97.7194H654.497V73.7882H652.356ZM652.356 97.7194C652.356 104.255 652.565 108.725 653.012 111.027L655.115 110.618C654.713 108.552 654.497 104.287 654.497 97.7194H652.356ZM653.013 111.032C653.487 113.399 654.653 115.165 656.617 116.071L657.515 114.127C656.325 113.578 655.489 112.492 655.113 110.612L653.013 111.032ZM657.066 116.17C664.943 116.17 671.004 115.237 675.134 113.268C677.213 112.276 678.844 111.004 679.953 109.417C681.068 107.821 681.613 105.97 681.613 103.907H679.471C679.471 105.574 679.038 106.987 678.197 108.19C677.35 109.402 676.046 110.46 674.212 111.334C670.517 113.096 664.841 114.028 657.066 114.028V116.17ZM680.734 104.961L681.735 104.779L681.352 102.671L680.351 102.853L680.734 104.961ZM680.472 103.725V116.919H682.614V103.725H680.472ZM704.356 109.639L703.298 109.802L703.3 109.816L703.302 109.829L704.356 109.639ZM706.085 114.098L705.4 114.921L705.403 114.924L706.085 114.098ZM712.728 115.827L713.784 115.651L713.635 114.756H712.728V115.827ZM712.91 116.919V117.99H714.174L713.966 116.743L712.91 116.919ZM688.341 116.919L687.285 116.743L687.077 117.99H688.341V116.919ZM688.523 115.827V114.756H687.616L687.467 115.651L688.523 115.827ZM694.438 114.644L693.828 113.764L693.812 113.775L693.796 113.787L694.438 114.644ZM696.076 112.824L695.118 112.345L695.109 112.363L695.101 112.381L696.076 112.824ZM696.986 109.276L698.045 109.432L698.046 109.427L696.986 109.276ZM695.257 55.9535L695.943 55.1308L695.932 55.1222L695.922 55.1139L695.257 55.9535ZM688.523 54.2246L687.47 54.4162L687.63 55.2955H688.523V54.2246ZM688.341 53.2237V52.1528H687.058L687.288 53.4153L688.341 53.2237ZM712.91 53.2237L713.963 53.4153L714.193 52.1528H712.91V53.2237ZM712.728 54.2246V55.2955H713.621L713.781 54.4162L712.728 54.2246ZM706.085 55.9535L705.403 55.1279L705.396 55.1335L706.085 55.9535ZM702.739 73.7882V96.3545H704.881V73.7882H702.739ZM702.739 96.3545C702.739 102.838 702.92 107.344 703.298 109.802L705.415 109.477C705.065 107.203 704.881 102.853 704.881 96.3545H702.739ZM703.302 109.829C703.521 111.049 703.786 112.085 704.109 112.916C704.423 113.726 704.831 114.447 705.4 114.921L706.771 113.275C706.611 113.143 706.367 112.817 706.105 112.141C705.851 111.486 705.616 110.596 705.41 109.45L703.302 109.829ZM705.403 114.924C707.083 116.311 709.6 116.898 712.728 116.898V114.756C709.789 114.756 707.878 114.19 706.767 113.273L705.403 114.924ZM711.671 116.003L711.853 117.095L713.966 116.743L713.784 115.651L711.671 116.003ZM712.91 115.848H688.341V117.99H712.91V115.848ZM689.398 117.095L689.58 116.003L687.467 115.651L687.285 116.743L689.398 117.095ZM688.523 116.898C690.059 116.898 691.3 116.837 692.224 116.705L691.921 114.585C691.146 114.696 690.021 114.756 688.523 114.756V116.898ZM692.224 116.705C693.262 116.557 694.218 116.148 695.081 115.501L693.796 113.787C693.203 114.232 692.581 114.491 691.921 114.585L692.224 116.705ZM695.048 115.525C695.947 114.902 696.646 114.157 697.051 113.267L695.101 112.381C694.899 112.826 694.506 113.295 693.828 113.764L695.048 115.525ZM697.034 113.303C697.478 112.416 697.799 111.091 698.045 109.432L695.927 109.119C695.687 110.735 695.402 111.777 695.118 112.345L697.034 113.303ZM698.046 109.427C698.362 107.216 698.512 102.832 698.512 96.3545H696.37C696.37 102.859 696.216 107.089 695.926 109.124L698.046 109.427ZM698.512 96.3545V73.7882H696.37V96.3545H698.512ZM698.512 73.7882C698.512 67.4819 698.331 63.0124 697.954 60.4391L695.835 60.7492C696.187 63.1502 696.37 67.4768 696.37 73.7882H698.512ZM697.954 60.4391C697.767 59.159 697.527 58.0758 697.222 57.2122C696.926 56.3733 696.527 55.6179 695.943 55.1308L694.571 56.7762C694.715 56.8958 694.953 57.2171 695.203 57.925C695.444 58.6084 695.659 59.5421 695.835 60.7492L697.954 60.4391ZM695.922 55.1139C694.19 53.7427 691.657 53.1538 688.523 53.1538V55.2955C691.457 55.2955 693.413 55.8592 694.592 56.7931L695.922 55.1139ZM689.577 54.0331L689.395 53.0321L687.288 53.4153L687.47 54.4162L689.577 54.0331ZM688.341 54.2946H712.91V52.1528H688.341V54.2946ZM711.856 53.0321L711.674 54.0331L713.781 54.4162L713.963 53.4153L711.856 53.0321ZM712.728 53.1538C709.6 53.1538 707.083 53.7404 705.403 55.1279L706.767 56.7791C707.878 55.8615 709.789 55.2955 712.728 55.2955V53.1538ZM705.396 55.1335C704.774 55.6563 704.367 56.5151 704.069 57.4629C703.757 58.4505 703.51 59.7146 703.317 61.2321C702.929 64.2711 702.739 68.4637 702.739 73.7882H704.881C704.881 68.4967 705.071 64.409 705.441 61.5031C705.627 60.0481 705.854 58.9237 706.111 58.1066C706.381 57.2497 706.638 56.8877 706.774 56.7735L705.396 55.1335ZM718.835 53.2237V52.1528H717.764V53.2237H718.835ZM771.247 53.2237H772.318V52.1528H771.247V53.2237ZM771.247 66.3267L771.037 67.3768L772.318 67.633V66.3267H771.247ZM770.337 66.1447H769.266V67.0227L770.127 67.1948L770.337 66.1447ZM748.317 55.0436V53.9727H747.246V55.0436H748.317ZM749.864 112.733L750.821 112.254L750.815 112.243L750.809 112.231L749.864 112.733ZM751.774 114.644L751.223 115.562L751.223 115.562L751.774 114.644ZM754.686 115.645L754.561 116.709L754.561 116.709L754.686 115.645ZM758.963 115.827L760.019 115.651L759.87 114.756H758.963V115.827ZM759.145 116.919V117.99H760.409L760.201 116.743L759.145 116.919ZM731.119 116.919L730.063 116.743L729.855 117.99H731.119V116.919ZM731.301 115.827V114.756H730.394L730.245 115.651L731.301 115.827ZM735.578 115.736L735.641 116.805L735.668 116.803L735.696 116.8L735.578 115.736ZM738.489 114.644L737.895 113.753L737.881 113.763L737.867 113.773L738.489 114.644ZM740.4 112.733L739.497 112.158L739.477 112.189L739.46 112.22L740.4 112.733ZM741.492 109.185L742.546 109.373L742.549 109.357L742.552 109.34L741.492 109.185ZM741.947 55.0436H743.018V53.9727H741.947V55.0436ZM719.927 66.1447L720.103 67.2011L720.998 67.0519V66.1447H719.927ZM718.835 66.3267H717.764V67.5909L719.011 67.383L718.835 66.3267ZM718.835 54.2946H771.247V52.1528H718.835V54.2946ZM770.176 53.2237V66.3267H772.318V53.2237H770.176ZM771.457 65.2766L770.547 65.0947L770.127 67.1948L771.037 67.3768L771.457 65.2766ZM771.408 66.1447C771.408 64.109 770.9 62.2795 769.854 60.6973C768.812 59.1214 767.277 57.8521 765.314 56.8626C761.419 54.8991 755.712 53.9727 748.317 53.9727V56.1145C755.601 56.1145 760.905 57.0383 764.35 58.7751C766.057 59.6358 767.274 60.6792 768.067 61.8786C768.856 63.0717 769.266 64.4801 769.266 66.1447H771.408ZM747.246 55.0436V96.3545H749.388V55.0436H747.246ZM747.246 96.3545C747.246 100.859 747.375 104.506 747.637 107.283C747.894 110.004 748.29 112.054 748.918 113.236L750.809 112.231C750.406 111.471 750.028 109.821 749.77 107.082C749.516 104.4 749.388 100.828 749.388 96.3545H747.246ZM748.906 113.212C749.385 114.17 750.191 114.943 751.223 115.562L752.325 113.726C751.538 113.253 751.07 112.752 750.821 112.254L748.906 113.212ZM751.223 115.562C752.261 116.185 753.376 116.569 754.561 116.709L754.811 114.581C753.934 114.478 753.108 114.196 752.325 113.726L751.223 115.562ZM754.561 116.709C755.654 116.837 757.127 116.898 758.963 116.898V114.756C757.159 114.756 755.781 114.696 754.811 114.581L754.561 116.709ZM757.907 116.003L758.089 117.095L760.201 116.743L760.019 115.651L757.907 116.003ZM759.145 115.848H731.119V117.99H759.145V115.848ZM732.175 117.095L732.357 116.003L730.245 115.651L730.063 116.743L732.175 117.095ZM731.301 116.898C733.129 116.898 734.578 116.868 735.641 116.805L735.515 114.667C734.514 114.726 733.113 114.756 731.301 114.756V116.898ZM735.696 116.8C736.96 116.66 738.106 116.234 739.112 115.516L737.867 113.773C737.174 114.267 736.379 114.569 735.459 114.672L735.696 116.8ZM739.083 115.535C740.079 114.872 740.865 114.118 741.34 113.246L739.46 112.22C739.208 112.683 738.72 113.203 737.895 113.753L739.083 115.535ZM741.304 113.308C741.85 112.45 742.241 111.085 742.546 109.373L740.438 108.996C740.137 110.682 739.8 111.682 739.497 112.158L741.304 113.308ZM742.552 109.34C742.868 107.187 743.018 102.83 743.018 96.3545H740.876C740.876 102.861 740.723 107.057 740.433 109.029L742.552 109.34ZM743.018 96.3545V55.0436H740.876V96.3545H743.018ZM741.947 53.9727C734.552 53.9727 728.845 54.8991 724.95 56.8626C722.987 57.8521 721.452 59.1214 720.41 60.6973C719.364 62.2795 718.856 64.109 718.856 66.1447H720.998C720.998 64.4801 721.407 63.0717 722.196 61.8786C722.989 60.6792 724.207 59.6358 725.914 58.7751C729.359 57.0383 734.662 56.1145 741.947 56.1145V53.9727ZM719.751 65.0884L718.659 65.2704L719.011 67.383L720.103 67.2011L719.751 65.0884ZM719.906 66.3267V53.2237H717.764V66.3267H719.906ZM793.217 109.639L792.158 109.802L792.16 109.816L792.163 109.829L793.217 109.639ZM794.946 114.098L794.26 114.921L794.264 114.924L794.946 114.098ZM801.588 115.827L802.645 115.651L802.495 114.756H801.588V115.827ZM801.77 116.919V117.99H803.034L802.827 116.743L801.77 116.919ZM777.202 116.919L776.146 116.743L775.938 117.99H777.202V116.919ZM777.384 115.827V114.756H776.477L776.328 115.651L777.384 115.827ZM783.299 114.644L782.689 113.764L782.672 113.775L782.656 113.787L783.299 114.644ZM784.936 112.824L783.979 112.345L783.97 112.363L783.962 112.381L784.936 112.824ZM785.846 109.276L786.906 109.432L786.907 109.427L785.846 109.276ZM784.118 55.9535L784.803 55.1308L784.793 55.1222L784.782 55.1139L784.118 55.9535ZM777.384 54.2246L776.33 54.4162L776.49 55.2955H777.384V54.2246ZM777.202 53.2237V52.1528H775.919L776.148 53.4153L777.202 53.2237ZM801.77 53.2237L802.824 53.4153L803.053 52.1528H801.77V53.2237ZM801.588 54.2246V55.2955H802.482L802.642 54.4162L801.588 54.2246ZM794.946 55.9535L794.264 55.1279L794.257 55.1335L794.946 55.9535ZM791.6 73.7882V96.3545H793.742V73.7882H791.6ZM791.6 96.3545C791.6 102.838 791.78 107.344 792.158 109.802L794.275 109.477C793.925 107.203 793.742 102.853 793.742 96.3545H791.6ZM792.163 109.829C792.382 111.049 792.647 112.085 792.969 112.916C793.283 113.726 793.692 114.447 794.26 114.921L795.631 113.275C795.472 113.143 795.228 112.817 794.966 112.141C794.712 111.486 794.477 110.596 794.271 109.45L792.163 109.829ZM794.264 114.924C795.943 116.311 798.461 116.898 801.588 116.898V114.756C798.649 114.756 796.739 114.19 795.628 113.273L794.264 114.924ZM800.532 116.003L800.714 117.095L802.827 116.743L802.645 115.651L800.532 116.003ZM801.77 115.848H777.202V117.99H801.77V115.848ZM778.258 117.095L778.44 116.003L776.328 115.651L776.146 116.743L778.258 117.095ZM777.384 116.898C778.919 116.898 780.161 116.837 781.084 116.705L780.781 114.585C780.006 114.696 778.882 114.756 777.384 114.756V116.898ZM781.084 116.705C782.123 116.557 783.078 116.148 783.941 115.501L782.656 113.787C782.063 114.232 781.442 114.491 780.781 114.585L781.084 116.705ZM783.908 115.525C784.808 114.902 785.507 114.157 785.911 113.267L783.962 112.381C783.759 112.826 783.366 113.295 782.689 113.764L783.908 115.525ZM785.894 113.303C786.338 112.416 786.66 111.091 786.906 109.432L784.787 109.119C784.548 110.735 784.263 111.777 783.979 112.345L785.894 113.303ZM786.907 109.427C787.222 107.216 787.372 102.832 787.372 96.3545H785.23C785.23 102.859 785.077 107.089 784.786 109.124L786.907 109.427ZM787.372 96.3545V73.7882H785.23V96.3545H787.372ZM787.372 73.7882C787.372 67.4819 787.192 63.0124 786.815 60.4391L784.696 60.7492C785.047 63.1502 785.23 67.4768 785.23 73.7882H787.372ZM786.815 60.4391C786.628 59.159 786.388 58.0758 786.083 57.2122C785.787 56.3733 785.388 55.6179 784.803 55.1308L783.432 56.7762C783.575 56.8958 783.813 57.2171 784.063 57.925C784.304 58.6084 784.519 59.5421 784.696 60.7492L786.815 60.4391ZM784.782 55.1139C783.05 53.7427 780.517 53.1538 777.384 53.1538V55.2955C780.317 55.2955 782.273 55.8592 783.453 56.7931L784.782 55.1139ZM778.438 54.0331L778.256 53.0321L776.148 53.4153L776.33 54.4162L778.438 54.0331ZM777.202 54.2946H801.77V52.1528H777.202V54.2946ZM800.717 53.0321L800.535 54.0331L802.642 54.4162L802.824 53.4153L800.717 53.0321ZM801.588 53.1538C798.461 53.1538 795.943 53.7404 794.264 55.1279L795.628 56.7791C796.739 55.8615 798.649 55.2955 801.588 55.2955V53.1538ZM794.257 55.1335C793.635 55.6563 793.228 56.5151 792.929 57.4629C792.618 58.4505 792.371 59.7146 792.177 61.2321C791.79 64.2711 791.6 68.4637 791.6 73.7882H793.742C793.742 68.4967 793.931 64.409 794.302 61.5031C794.487 60.0481 794.714 58.9237 794.972 58.1066C795.242 57.2497 795.499 56.8877 795.634 56.7735L794.257 55.1335Z" fill="url(#paint7_linear_3220_28931)" mask="url(#path-10-outside-2_3220_28931)"/>
<rect x="473.332" y="175.625" width="372.668" height="3.21266" fill="url(#paint8_linear_3220_28931)"/>
<defs>
<linearGradient id="paint0_linear_3220_28931" x1="-29.832" y1="0.422781" x2="-29.8352" y2="4.98898" gradientUnits="userSpaceOnUse">
<stop stop-color="#2F3EDE"/>
<stop offset="1" stop-color="white"/>
</linearGradient>
<linearGradient id="paint1_linear_3220_28931" x1="-29.832" y1="50.4917" x2="-33.332" y2="202.492" gradientUnits="userSpaceOnUse">
<stop stop-color="#2F3EDE"/>
<stop offset="1" stop-color="white"/>
</linearGradient>
<linearGradient id="paint2_linear_3220_28931" x1="-29.832" y1="50.4917" x2="-33.332" y2="202.492" gradientUnits="userSpaceOnUse">
<stop stop-color="#2F3EDE"/>
<stop offset="1" stop-color="white"/>
</linearGradient>
<linearGradient id="paint3_linear_3220_28931" x1="-29.832" y1="173.907" x2="-29.8352" y2="178.473" gradientUnits="userSpaceOnUse">
<stop stop-color="#2F3EDE"/>
<stop offset="1" stop-color="white"/>
</linearGradient>
<linearGradient id="paint4_linear_3220_28931" x1="374.548" y1="29.0574" x2="338.799" y2="256.309" gradientUnits="userSpaceOnUse">
<stop stop-color="#2F3EDE"/>
<stop offset="1" stop-color="white"/>
</linearGradient>
<linearGradient id="paint5_linear_3220_28931" x1="443.5" y1="0.422781" x2="443.497" y2="4.98898" gradientUnits="userSpaceOnUse">
<stop stop-color="#2F3EDE"/>
<stop offset="1" stop-color="white"/>
</linearGradient>
<linearGradient id="paint6_linear_3220_28931" x1="422" y1="54" x2="423" y2="191" gradientUnits="userSpaceOnUse">
<stop stop-color="#2F3EDE"/>
<stop offset="1" stop-color="white"/>
</linearGradient>
<linearGradient id="paint7_linear_3220_28931" x1="443.5" y1="50" x2="440" y2="202" gradientUnits="userSpaceOnUse">
<stop stop-color="#2F3EDE"/>
<stop offset="1" stop-color="white"/>
</linearGradient>
<linearGradient id="paint8_linear_3220_28931" x1="443.5" y1="176.048" x2="443.497" y2="180.614" gradientUnits="userSpaceOnUse">
<stop stop-color="#2F3EDE"/>
<stop offset="1" stop-color="white"/>
</linearGradient>
<clipPath id="clip0_3220_28931">
<rect width="372.668" height="3.21266" rx="1.60633" fill="white"/>
</clipPath>
<clipPath id="clip1_3220_28931">
<rect y="173.484" width="372.668" height="3.21266" rx="1.60633" fill="white"/>
</clipPath>
<clipPath id="clip2_3220_28931">
<rect x="473.332" width="372.668" height="3.21266" rx="1.60633" fill="white"/>
</clipPath>
</defs>
</svg>
