<svg width="13" height="16" viewBox="0 0 13 16" fill="none" xmlns="http://www.w3.org/2000/svg">
<path fill-rule="evenodd" clip-rule="evenodd" d="M0.166992 1.33333C0.166992 0.873096 0.540088 0.5 1.00033 0.5H7.66699C9.96814 0.5 11.8337 2.36547 11.8337 4.66667C11.8337 5.85891 11.3329 6.93422 10.5302 7.69372C11.805 8.40625 12.667 9.76915 12.667 11.3333C12.667 13.6345 10.8015 15.5 8.50033 15.5H1.00033C0.540088 15.5 0.166992 15.1269 0.166992 14.6667V1.33333ZM1.83366 8.83333V13.8333H8.50033C9.881 13.8333 11.0003 12.714 11.0003 11.3333C11.0003 9.95265 9.881 8.83333 8.50033 8.83333H1.83366ZM1.83366 7.16667H7.66699C9.04767 7.16667 10.167 6.04735 10.167 4.66667C10.167 3.28596 9.04768 2.16667 7.66699 2.16667H1.83366V7.16667Z" fill="black"/>
</svg>
