<svg width="32" height="32" viewBox="0 0 32 32" fill="none" xmlns="http://www.w3.org/2000/svg">
<g filter="url(#filter0_ii_161_2990)">
<path fill-rule="evenodd" clip-rule="evenodd" d="M7.33332 2.66602C6.15511 2.66602 5.19998 3.62114 5.19998 4.79935V27.1993C5.19998 28.3776 6.15511 29.3327 7.33332 29.3327H24.6666C25.8449 29.3327 26.8 28.3776 26.8 27.1994V9.33268L20.1333 2.66602H7.33332Z" fill="#4876F9"/>
</g>
<g filter="url(#filter1_dd_161_2990)">
<path d="M13.9797 22.6663L15.9877 15.3052H16.0247L18.0203 22.6663H19.1413L21.6667 13.833H20.5333L18.5993 21.2437H18.55L16.5543 13.833H15.458L13.45 21.2437H13.4007L11.4667 13.833H10.3333L12.8587 22.6663H13.9797Z" fill="white"/>
</g>
<path d="M26.1745 8.70801H20.7583L26.8 14.7497L26.8 9.33301L26.1745 8.70801Z" fill="url(#paint0_linear_161_2990)"/>
<path d="M22.2667 9.33301L26.8 9.33301L20.1333 2.66634L20.1333 7.19967C20.1333 8.37788 21.0884 9.33301 22.2667 9.33301Z" fill="#B5C8FC"/>
<defs>
<filter id="filter0_ii_161_2990" x="5.19998" y="2.53268" width="21.6" height="26.9337" filterUnits="userSpaceOnUse" color-interpolation-filters="sRGB">
<feFlood flood-opacity="0" result="BackgroundImageFix"/>
<feBlend mode="normal" in="SourceGraphic" in2="BackgroundImageFix" result="shape"/>
<feColorMatrix in="SourceAlpha" type="matrix" values="0 0 0 0 0 0 0 0 0 0 0 0 0 0 0 0 0 0 127 0" result="hardAlpha"/>
<feOffset dy="-0.266667"/>
<feGaussianBlur stdDeviation="0.0666667"/>
<feComposite in2="hardAlpha" operator="arithmetic" k2="-1" k3="1"/>
<feColorMatrix type="matrix" values="0 0 0 0 0 0 0 0 0 0 0 0 0 0 0 0 0 0 0.3 0"/>
<feBlend mode="normal" in2="shape" result="effect1_innerShadow_161_2990"/>
<feColorMatrix in="SourceAlpha" type="matrix" values="0 0 0 0 0 0 0 0 0 0 0 0 0 0 0 0 0 0 127 0" result="hardAlpha"/>
<feOffset dy="0.266667"/>
<feGaussianBlur stdDeviation="0.0666667"/>
<feComposite in2="hardAlpha" operator="arithmetic" k2="-1" k3="1"/>
<feColorMatrix type="matrix" values="0 0 0 0 1 0 0 0 0 1 0 0 0 0 1 0 0 0 0.3 0"/>
<feBlend mode="normal" in2="effect1_innerShadow_161_2990" result="effect2_innerShadow_161_2990"/>
</filter>
<filter id="filter1_dd_161_2990" x="10.2" y="13.6997" width="12.5333" height="10.2997" filterUnits="userSpaceOnUse" color-interpolation-filters="sRGB">
<feFlood flood-opacity="0" result="BackgroundImageFix"/>
<feColorMatrix in="SourceAlpha" type="matrix" values="0 0 0 0 0 0 0 0 0 0 0 0 0 0 0 0 0 0 127 0" result="hardAlpha"/>
<feOffset dx="0.533333" dy="0.8"/>
<feGaussianBlur stdDeviation="0.266667"/>
<feColorMatrix type="matrix" values="0 0 0 0 0 0 0 0 0 0 0 0 0 0 0 0 0 0 0.1 0"/>
<feBlend mode="normal" in2="BackgroundImageFix" result="effect1_dropShadow_161_2990"/>
<feColorMatrix in="SourceAlpha" type="matrix" values="0 0 0 0 0 0 0 0 0 0 0 0 0 0 0 0 0 0 127 0" result="hardAlpha"/>
<feOffset/>
<feGaussianBlur stdDeviation="0.0666667"/>
<feColorMatrix type="matrix" values="0 0 0 0 0 0 0 0 0 0 0 0 0 0 0 0 0 0 0.4 0"/>
<feBlend mode="normal" in2="effect1_dropShadow_161_2990" result="effect2_dropShadow_161_2990"/>
<feBlend mode="normal" in="SourceGraphic" in2="effect2_dropShadow_161_2990" result="shape"/>
</filter>
<linearGradient id="paint0_linear_161_2990" x1="22.1125" y1="7.35384" x2="28.1542" y2="13.3955" gradientUnits="userSpaceOnUse">
<stop stop-opacity="0.2"/>
<stop offset="1" stop-opacity="0"/>
</linearGradient>
</defs>
</svg>
