<svg width="14" height="13" viewBox="0 0 14 13" fill="none" xmlns="http://www.w3.org/2000/svg">
<path fill-rule="evenodd" clip-rule="evenodd" d="M0.400391 5.00443C0.400391 3.25544 1.81823 1.83761 3.56721 1.83761C3.88839 1.83761 4.19758 1.71561 4.43222 1.49629L4.65372 1.28924C4.89578 1.06298 5.0168 0.949857 5.14874 0.858426C5.42744 0.665294 5.747 0.539195 6.08248 0.489976C6.24131 0.466675 6.40697 0.466675 6.7383 0.466675H7.00039H7.26248C7.59381 0.466675 7.75947 0.466675 7.9183 0.489976C8.25378 0.539195 8.57335 0.665294 8.85204 0.858426C8.98397 0.949854 9.105 1.06298 9.34703 1.28921L9.56857 1.49629C9.8032 1.71561 10.1124 1.83761 10.4336 1.83761C12.1826 1.83761 13.6004 3.25545 13.6004 5.00443V7.7982C13.6004 9.51197 13.6004 10.3689 13.2534 11.0174C12.9801 11.528 12.5617 11.9464 12.0511 12.2196C11.4026 12.5667 10.5457 12.5667 8.83192 12.5667H5.16886C3.45509 12.5667 2.59821 12.5667 1.94971 12.2196C1.43904 11.9464 1.0207 11.528 0.747424 11.0174C0.400391 10.3689 0.400391 9.51197 0.400391 7.7982V5.00443ZM7.00039 6.11334C6.06887 6.11334 5.31372 6.86849 5.31372 7.80001C5.31372 8.73153 6.06887 9.48668 7.00039 9.48668C7.93191 9.48668 8.68706 8.73153 8.68706 7.80001C8.68706 6.86849 7.93191 6.11334 7.00039 6.11334ZM4.28706 7.80001C4.28706 6.30148 5.50186 5.08668 7.00039 5.08668C8.49892 5.08668 9.71372 6.30148 9.71372 7.80001C9.71372 9.29854 8.49892 10.5133 7.00039 10.5133C5.50186 10.5133 4.28706 9.29854 4.28706 7.80001ZM9.93372 3.62001C9.65022 3.62001 9.42039 3.84984 9.42039 4.13334C9.42039 4.41685 9.65022 4.64667 9.93372 4.64667H10.6671C10.9506 4.64667 11.1804 4.41685 11.1804 4.13334C11.1804 3.84984 10.9506 3.62001 10.6671 3.62001H9.93372Z" fill="white"/>
</svg>
