<svg width="14" height="16" viewBox="0 0 14 16" fill="none" xmlns="http://www.w3.org/2000/svg">
<path fill-rule="evenodd" clip-rule="evenodd" d="M9.48145 0.500226H5.33398C4.87375 0.500226 4.50065 0.873322 4.50065 1.33356C4.50065 1.7938 4.87375 2.16689 5.33398 2.16689H8.29815L3.92315 13.8336H1.16732C0.70708 13.8336 0.333984 14.2067 0.333984 14.6669C0.333984 15.1271 0.70708 15.5002 1.16732 15.5002H4.48118C4.49411 15.5005 4.50701 15.5005 4.51987 15.5002H8.66732C9.12756 15.5002 9.50065 15.1271 9.50065 14.6669C9.50065 14.2067 9.12756 13.8336 8.66732 13.8336H5.70315L10.0782 2.16689H12.834C13.2942 2.16689 13.6673 1.7938 13.6673 1.33356C13.6673 0.873322 13.2942 0.500226 12.834 0.500226H9.52011C9.50719 0.499924 9.4943 0.499925 9.48145 0.500226Z" fill="black"/>
</svg>
