<svg width="21" height="20" viewBox="0 0 21 20" fill="none" xmlns="http://www.w3.org/2000/svg">
<path fill-rule="evenodd" clip-rule="evenodd" d="M3.40002 4.9974C3.40002 4.53716 3.77312 4.16406 4.23336 4.16406H18.4C18.8603 4.16406 19.2334 4.53716 19.2334 4.9974C19.2334 5.45763 18.8603 5.83073 18.4 5.83073H4.23336C3.77312 5.83073 3.40002 5.45763 3.40002 4.9974ZM6.73336 8.33073C6.73336 7.87049 7.10645 7.4974 7.56669 7.4974H18.4C18.8603 7.4974 19.2334 7.87049 19.2334 8.33073C19.2334 8.79097 18.8603 9.16406 18.4 9.16406H7.56669C7.10645 9.16406 6.73336 8.79097 6.73336 8.33073ZM3.40002 11.6641C3.40002 11.2038 3.77312 10.8307 4.23336 10.8307H18.4C18.8603 10.8307 19.2334 11.2038 19.2334 11.6641C19.2334 12.1243 18.8603 12.4974 18.4 12.4974H4.23336C3.77312 12.4974 3.40002 12.1243 3.40002 11.6641ZM6.73336 14.9974C6.73336 14.5372 7.10645 14.1641 7.56669 14.1641H18.4C18.8603 14.1641 19.2334 14.5372 19.2334 14.9974C19.2334 15.4576 18.8603 15.8307 18.4 15.8307H7.56669C7.10645 15.8307 6.73336 15.4576 6.73336 14.9974Z" fill="black"/>
</svg>
