<svg width="21" height="20" viewBox="0 0 21 20" fill="none" xmlns="http://www.w3.org/2000/svg">
<path fill-rule="evenodd" clip-rule="evenodd" d="M2.56702 4.9974C2.56702 4.53716 2.94011 4.16406 3.40035 4.16406H17.567C18.0273 4.16406 18.4004 4.53716 18.4004 4.9974C18.4004 5.45763 18.0273 5.83073 17.567 5.83073H3.40035C2.94011 5.83073 2.56702 5.45763 2.56702 4.9974ZM2.56702 8.33073C2.56702 7.87049 2.94011 7.4974 3.40035 7.4974H14.2337C14.6939 7.4974 15.067 7.87049 15.067 8.33073C15.067 8.79097 14.6939 9.16406 14.2337 9.16406H3.40035C2.94011 9.16406 2.56702 8.79097 2.56702 8.33073ZM2.56702 11.6641C2.56702 11.2038 2.94011 10.8307 3.40035 10.8307H17.567C18.0273 10.8307 18.4004 11.2038 18.4004 11.6641C18.4004 12.1243 18.0273 12.4974 17.567 12.4974H3.40035C2.94011 12.4974 2.56702 12.1243 2.56702 11.6641ZM2.56702 14.9974C2.56702 14.5372 2.94011 14.1641 3.40035 14.1641H14.2337C14.6939 14.1641 15.067 14.5372 15.067 14.9974C15.067 15.4576 14.6939 15.8307 14.2337 15.8307H3.40035C2.94011 15.8307 2.56702 15.4576 2.56702 14.9974Z" fill="black"/>
</svg>
