<svg width="21" height="20" viewBox="0 0 21 20" fill="none" xmlns="http://www.w3.org/2000/svg">
<path fill-rule="evenodd" clip-rule="evenodd" d="M2.56702 4.9974C2.56702 4.53716 2.94011 4.16406 3.40035 4.16406H18.4003C18.8606 4.16406 19.2337 4.53716 19.2337 4.9974C19.2337 5.45763 18.8606 5.83073 18.4003 5.83073H3.40035C2.94011 5.83073 2.56702 5.45763 2.56702 4.9974ZM2.56702 8.33073C2.56702 7.87049 2.94011 7.4974 3.40035 7.4974H18.4003C18.8606 7.4974 19.2337 7.87049 19.2337 8.33073C19.2337 8.79097 18.8606 9.16406 18.4003 9.16406H3.40035C2.94011 9.16406 2.56702 8.79097 2.56702 8.33073ZM2.56702 11.6641C2.56702 11.2038 2.94011 10.8307 3.40035 10.8307H18.4003C18.8606 10.8307 19.2337 11.2038 19.2337 11.6641C19.2337 12.1243 18.8606 12.4974 18.4003 12.4974H3.40035C2.94011 12.4974 2.56702 12.1243 2.56702 11.6641ZM2.56702 14.9974C2.56702 14.5372 2.94011 14.1641 3.40035 14.1641H18.4003C18.8606 14.1641 19.2337 14.5372 19.2337 14.9974C19.2337 15.4576 18.8606 15.8307 18.4003 15.8307H3.40035C2.94011 15.8307 2.56702 15.4576 2.56702 14.9974Z" fill="black"/>
</svg>
