<svg width="21" height="20" viewBox="0 0 21 20" fill="none" xmlns="http://www.w3.org/2000/svg">
<path fill-rule="evenodd" clip-rule="evenodd" d="M2.56702 4.9974C2.56702 4.53716 2.94011 4.16406 3.40035 4.16406H18.4003C18.8606 4.16406 19.2337 4.53716 19.2337 4.9974C19.2337 5.45763 18.8606 5.83073 18.4003 5.83073H3.40035C2.94011 5.83073 2.56702 5.45763 2.56702 4.9974ZM5.06702 8.33073C5.06702 7.87049 5.44011 7.4974 5.90035 7.4974H15.9003C16.3606 7.4974 16.7337 7.87049 16.7337 8.33073C16.7337 8.79097 16.3606 9.16406 15.9003 9.16406H5.90035C5.44011 9.16406 5.06702 8.79097 5.06702 8.33073ZM2.56702 11.6641C2.56702 11.2038 2.94011 10.8307 3.40035 10.8307H18.4003C18.8606 10.8307 19.2337 11.2038 19.2337 11.6641C19.2337 12.1243 18.8606 12.4974 18.4003 12.4974H3.40035C2.94011 12.4974 2.56702 12.1243 2.56702 11.6641ZM5.06702 14.9974C5.06702 14.5372 5.44011 14.1641 5.90035 14.1641H15.9003C16.3606 14.1641 16.7337 14.5372 16.7337 14.9974C16.7337 15.4576 16.3606 15.8307 15.9003 15.8307H5.90035C5.44011 15.8307 5.06702 15.4576 5.06702 14.9974Z" fill="black"/>
</svg>
