<svg width="64" height="64" viewBox="0 0 64 64" fill="none" xmlns="http://www.w3.org/2000/svg">
<path d="M31.7703 40.2891C23.3167 40.2891 15.799 44.3707 11.0128 50.7051C9.98274 52.0683 9.46767 52.7499 9.48453 53.6712C9.49754 54.3829 9.94447 55.2808 10.5045 55.7203C11.2294 56.2891 12.2338 56.2891 14.2428 56.2891H49.2975C51.3065 56.2891 52.311 56.2891 53.0358 55.7203C53.5958 55.2808 54.0428 54.3829 54.0558 53.6712C54.0726 52.7499 53.5577 52.0683 52.5276 50.7051C47.7414 44.3707 40.2236 40.2891 31.7703 40.2891Z" stroke="#2F3EDE" stroke-width="2.84444" stroke-linecap="round" stroke-linejoin="round"/>
<path d="M32.1449 32.2891C38.7724 32.2891 44.1449 26.9165 44.1449 20.2891C44.1449 13.6616 38.7724 8.28906 32.1449 8.28906C25.5174 8.28906 20.1448 13.6616 20.1448 20.2891C20.1448 26.9165 25.5174 32.2891 32.1449 32.2891Z" stroke="#2F3EDE" stroke-width="2.84444" stroke-linecap="round" stroke-linejoin="round"/>
</svg>
