<svg width="18" height="13" viewBox="0 0 18 13" fill="none" xmlns="http://www.w3.org/2000/svg">
<g filter="url(#filter0_dd_511_5271)">
<g clip-path="url(#clip0_511_5271)">
<rect x="1" y="0.679688" width="16" height="10.6425" fill="white"/>
<path d="M1 7.77734H17V11.3249H1V7.77734Z" fill="#1EB53A"/>
<path d="M1 0.679688H17V4.2272H1V0.679688Z" fill="#0099B5"/>
<path d="M1 4.08594H17V7.91725H1V4.08594Z" fill="#CE1126"/>
<path d="M1 4.30078H17V7.70639H1V4.30078Z" fill="white"/>
<path d="M4.13872 3.60361C4.81238 3.60361 5.35849 3.05749 5.35849 2.38383C5.35849 1.71017 4.81238 1.16406 4.13872 1.16406C3.46506 1.16406 2.91895 1.71017 2.91895 2.38383C2.91895 3.05749 3.46506 3.60361 4.13872 3.60361Z" fill="white"/>
<path d="M4.54497 3.60361C5.21863 3.60361 5.76474 3.05749 5.76474 2.38383C5.76474 1.71017 5.21863 1.16406 4.54497 1.16406C3.87131 1.16406 3.3252 1.71017 3.3252 2.38383C3.3252 3.05749 3.87131 3.60361 4.54497 3.60361Z" fill="#0099B5"/>
<path d="M6.82255 3.12109L6.7453 3.35285L6.86321 3.39351" fill="white"/>
<path d="M6.82234 3.12109L6.8996 3.35285L6.78169 3.39351" fill="white"/>
<path d="M7.0535 3.29525L6.80985 3.28643L6.8113 3.41507" fill="white"/>
<path d="M7.05233 3.29459L6.86063 3.43877L6.78279 3.33388" fill="white"/>
<path d="M6.59043 3.29069L6.78213 3.43487L6.85997 3.32997" fill="white"/>
<path d="M6.58926 3.29135L6.83292 3.28252L6.83146 3.41117" fill="white"/>
<path d="M6.96427 3.56362L6.88709 3.33032L6.76975 3.36442" fill="white"/>
<path d="M6.96322 3.56138L6.76405 3.41626L6.8329 3.31577" fill="white"/>
<path d="M6.67733 3.55898L6.87568 3.41938L6.80198 3.31577" fill="white"/>
<path d="M6.67789 3.56212L6.74873 3.32954L6.86965 3.36785" fill="white"/>
<path d="M6.82243 2.14453L6.74518 2.37629L6.86309 2.41695" fill="white"/>
<path d="M6.82222 2.14453L6.89948 2.37629L6.78156 2.41695" fill="white"/>
<path d="M7.05338 2.31869L6.80972 2.30987L6.81118 2.43851" fill="white"/>
<path d="M7.05221 2.31803L6.86051 2.46221L6.78267 2.35732" fill="white"/>
<path d="M6.58967 2.31412L6.78137 2.45831L6.85921 2.35341" fill="white"/>
<path d="M6.58834 2.31869L6.832 2.30987L6.83054 2.43851" fill="white"/>
<path d="M6.96434 2.58706L6.88715 2.35376L6.76982 2.38786" fill="white"/>
<path d="M6.96328 2.58482L6.76411 2.4397L6.83296 2.33921" fill="white"/>
<path d="M6.6774 2.58242L6.87574 2.44282L6.80205 2.33921" fill="white"/>
<path d="M6.67795 2.58555L6.74879 2.35297L6.86971 2.39129" fill="white"/>
<path d="M6.81944 1.16797L6.74219 1.39973L6.8601 1.44038" fill="white"/>
<path d="M6.81923 1.16797L6.89648 1.39973L6.77857 1.44038" fill="white"/>
<path d="M7.05137 1.34213L6.80771 1.33331L6.80917 1.46195" fill="white"/>
<path d="M7.0502 1.34147L6.85849 1.48565L6.78065 1.38076" fill="white"/>
<path d="M6.58951 1.33756L6.78122 1.48174L6.85906 1.37685" fill="white"/>
<path d="M6.58932 1.33822L6.83298 1.3294L6.83152 1.45804" fill="white"/>
<path d="M6.96434 1.6144L6.88715 1.3811L6.76982 1.4152" fill="white"/>
<path d="M6.96328 1.61216L6.76411 1.46704L6.83296 1.36655" fill="white"/>
<path d="M6.6774 1.60976L6.87574 1.47016L6.80205 1.36655" fill="white"/>
<path d="M6.67795 1.6129L6.74879 1.38032L6.86971 1.41863" fill="white"/>
<path d="M7.79603 3.12109L7.71878 3.35285L7.83669 3.39351" fill="white"/>
<path d="M7.79583 3.12109L7.87308 3.35285L7.75517 3.39351" fill="white"/>
<path d="M8.02796 3.29525L7.7843 3.28643L7.78576 3.41507" fill="white"/>
<path d="M8.02679 3.29459L7.83508 3.43877L7.75725 3.33388" fill="white"/>
<path d="M7.568 3.29069L7.7597 3.43487L7.83754 3.32997" fill="white"/>
<path d="M7.56683 3.29135L7.81048 3.28252L7.80903 3.41117" fill="white"/>
<path d="M7.93989 3.56362L7.86271 3.33032L7.74537 3.36442" fill="white"/>
<path d="M7.93883 3.56138L7.73966 3.41626L7.80852 3.31577" fill="white"/>
<path d="M7.65295 3.55898L7.8513 3.41938L7.7776 3.31577" fill="white"/>
<path d="M7.65351 3.56212L7.72434 3.32954L7.84527 3.36785" fill="white"/>
<path d="M7.79603 2.14453L7.71878 2.37629L7.83669 2.41695" fill="white"/>
<path d="M7.79485 2.14453L7.8721 2.37629L7.75419 2.41695" fill="white"/>
<path d="M8.02601 2.31869L7.78235 2.30987L7.78381 2.43851" fill="white"/>
<path d="M8.02484 2.31803L7.83313 2.46221L7.75529 2.35732" fill="white"/>
<path d="M7.56507 2.31412L7.75677 2.45831L7.83461 2.35341" fill="white"/>
<path d="M7.56487 2.31478L7.80853 2.30596L7.80707 2.4346" fill="white"/>
<path d="M7.93989 2.58706L7.86271 2.35376L7.74537 2.38786" fill="white"/>
<path d="M7.93883 2.58482L7.73966 2.4397L7.80852 2.33921" fill="white"/>
<path d="M7.65295 2.58242L7.8513 2.44282L7.7776 2.33921" fill="white"/>
<path d="M7.65351 2.58555L7.72434 2.35297L7.84527 2.39129" fill="white"/>
<path d="M7.79911 1.16797L7.72186 1.39973L7.83977 1.44038" fill="white"/>
<path d="M7.79891 1.16797L7.87616 1.39973L7.75825 1.44038" fill="white"/>
<path d="M8.03007 1.34213L7.78641 1.33331L7.78787 1.46195" fill="white"/>
<path d="M8.02889 1.34147L7.83719 1.48565L7.75935 1.38076" fill="white"/>
<path d="M7.56739 1.33756L7.75909 1.48174L7.83693 1.37685" fill="white"/>
<path d="M7.56606 1.34213L7.80972 1.33331L7.80826 1.46195" fill="white"/>
<path d="M7.94401 1.6144L7.86683 1.3811L7.74949 1.4152" fill="white"/>
<path d="M7.94295 1.61216L7.74378 1.46704L7.81264 1.36655" fill="white"/>
<path d="M7.65609 1.60976L7.85444 1.47016L7.78074 1.36655" fill="white"/>
<path d="M7.65665 1.6129L7.72749 1.38032L7.84841 1.41863" fill="white"/>
<path d="M8.77556 3.12109L8.6983 3.35285L8.81621 3.39351" fill="white"/>
<path d="M8.77535 3.12109L8.8526 3.35285L8.73469 3.39351" fill="white"/>
<path d="M9.00553 3.29525L8.76187 3.28643L8.76333 3.41507" fill="white"/>
<path d="M9.00436 3.29459L8.81265 3.43877L8.73482 3.33388" fill="white"/>
<path d="M8.54264 3.29459L8.73434 3.43877L8.81218 3.33388" fill="white"/>
<path d="M8.54244 3.29525L8.7861 3.28643L8.78464 3.41507" fill="white"/>
<path d="M8.91746 3.56362L8.84028 3.33032L8.72294 3.36442" fill="white"/>
<path d="M8.9164 3.56138L8.71723 3.41626L8.78609 3.31577" fill="white"/>
<path d="M8.63052 3.55898L8.82887 3.41938L8.75517 3.31577" fill="white"/>
<path d="M8.63108 3.56212L8.70191 3.32954L8.82284 3.36785" fill="white"/>
<path d="M8.77256 2.14453L8.69531 2.37629L8.81322 2.41695" fill="white"/>
<path d="M8.77236 2.14453L8.84961 2.37629L8.7317 2.41695" fill="white"/>
<path d="M9.00352 2.31869L8.75986 2.30987L8.76132 2.43851" fill="white"/>
<path d="M9.00234 2.31803L8.81064 2.46221L8.7328 2.35732" fill="white"/>
<path d="M8.54279 2.31412L8.7345 2.45831L8.81233 2.35341" fill="white"/>
<path d="M8.54147 2.31869L8.78512 2.30987L8.78367 2.43851" fill="white"/>
<path d="M8.91746 2.58706L8.84028 2.35376L8.72294 2.38786" fill="white"/>
<path d="M8.9164 2.58482L8.71723 2.4397L8.78609 2.33921" fill="white"/>
<path d="M8.63052 2.58242L8.82887 2.44282L8.75517 2.33921" fill="white"/>
<path d="M8.63108 2.58555L8.70191 2.35297L8.82284 2.39129" fill="white"/>
<path d="M8.77256 1.16797L8.69531 1.39973L8.81322 1.44038" fill="white"/>
<path d="M8.77236 1.16797L8.84961 1.39973L8.7317 1.44038" fill="white"/>
<path d="M9.00352 1.34213L8.75986 1.33331L8.76132 1.46195" fill="white"/>
<path d="M9.00234 1.34147L8.81064 1.48565L8.7328 1.38076" fill="white"/>
<path d="M8.54279 1.33756L8.7345 1.48174L8.81233 1.37685" fill="white"/>
<path d="M8.54147 1.34213L8.78512 1.33331L8.78367 1.46195" fill="white"/>
<path d="M8.91746 1.6144L8.84028 1.3811L8.72294 1.4152" fill="white"/>
<path d="M8.9164 1.61216L8.71723 1.46704L8.78609 1.36655" fill="white"/>
<path d="M8.63052 1.60976L8.82887 1.47016L8.75517 1.36655" fill="white"/>
<path d="M8.63108 1.6129L8.70191 1.38032L8.82284 1.41863" fill="white"/>
<path d="M4.87022 3.12109L4.79297 3.35285L4.91088 3.39351" fill="white"/>
<path d="M4.87001 3.12109L4.94727 3.35285L4.82935 3.39351" fill="white"/>
<path d="M5.10117 3.29525L4.85751 3.28643L4.85897 3.41507" fill="white"/>
<path d="M5.1 3.29459L4.9083 3.43877L4.83046 3.33388" fill="white"/>
<path d="M4.63737 3.29069L4.82907 3.43487L4.90691 3.32997" fill="white"/>
<path d="M4.63717 3.29135L4.88083 3.28252L4.87937 3.41117" fill="white"/>
<path d="M5.01512 3.56362L4.93793 3.33032L4.8206 3.36442" fill="white"/>
<path d="M5.01406 3.56138L4.81489 3.41626L4.88374 3.31577" fill="white"/>
<path d="M4.7272 3.55898L4.92555 3.41938L4.85185 3.31577" fill="white"/>
<path d="M4.72776 3.56212L4.79859 3.32954L4.91952 3.36785" fill="white"/>
<path d="M5.8466 3.12109L5.76935 3.35285L5.88726 3.39351" fill="white"/>
<path d="M5.84639 3.12109L5.92365 3.35285L5.80573 3.39351" fill="white"/>
<path d="M6.07755 3.29525L5.83389 3.28643L5.83535 3.41507" fill="white"/>
<path d="M6.07638 3.29459L5.88468 3.43877L5.80684 3.33388" fill="white"/>
<path d="M5.61387 3.29069L5.80557 3.43487L5.88341 3.32997" fill="white"/>
<path d="M5.61367 3.29135L5.85733 3.28252L5.85587 3.41117" fill="white"/>
<path d="M5.99064 3.56362L5.91346 3.33032L5.79612 3.36442" fill="white"/>
<path d="M5.98958 3.56138L5.79041 3.41626L5.85927 3.31577" fill="white"/>
<path d="M5.7037 3.55898L5.90205 3.41938L5.82835 3.31577" fill="white"/>
<path d="M5.70426 3.56212L5.7751 3.32954L5.89602 3.36785" fill="white"/>
<path d="M5.84388 2.14453L5.76663 2.37629L5.88454 2.41695" fill="white"/>
<path d="M5.84368 2.14453L5.92093 2.37629L5.80302 2.41695" fill="white"/>
<path d="M6.07581 2.31869L5.83215 2.30987L5.83361 2.43851" fill="white"/>
<path d="M6.07464 2.31803L5.88294 2.46221L5.8051 2.35732" fill="white"/>
<path d="M5.61396 2.31412L5.80566 2.45831L5.8835 2.35341" fill="white"/>
<path d="M5.61376 2.31478L5.85742 2.30596L5.85596 2.4346" fill="white"/>
<path d="M5.98878 2.59096L5.9116 2.35767L5.79426 2.39176" fill="white"/>
<path d="M5.98772 2.58872L5.78855 2.4436L5.85741 2.34312" fill="white"/>
<path d="M5.70282 2.58632L5.90116 2.44672L5.82747 2.34312" fill="white"/>
<path d="M5.70337 2.58946L5.77421 2.35688L5.89513 2.39519" fill="white"/>
</g>
<rect x="1" y="0.679688" width="16" height="10.6425" stroke="#A8B7D4" stroke-width="0.036085" stroke-linejoin="round"/>
</g>
<defs>
<filter id="filter0_dd_511_5271" x="0.113186" y="0.370563" width="17.7736" height="12.4172" filterUnits="userSpaceOnUse" color-interpolation-filters="sRGB">
<feFlood flood-opacity="0" result="BackgroundImageFix"/>
<feColorMatrix in="SourceAlpha" type="matrix" values="0 0 0 0 0 0 0 0 0 0 0 0 0 0 0 0 0 0 127 0" result="hardAlpha"/>
<feOffset dy="0.579186"/>
<feGaussianBlur stdDeviation="0.434389"/>
<feComposite in2="hardAlpha" operator="out"/>
<feColorMatrix type="matrix" values="0 0 0 0 0.258824 0 0 0 0 0.278431 0 0 0 0 0.298039 0 0 0 0.08 0"/>
<feBlend mode="normal" in2="BackgroundImageFix" result="effect1_dropShadow_511_5271"/>
<feColorMatrix in="SourceAlpha" type="matrix" values="0 0 0 0 0 0 0 0 0 0 0 0 0 0 0 0 0 0 127 0" result="hardAlpha"/>
<feOffset/>
<feGaussianBlur stdDeviation="0.0361991"/>
<feComposite in2="hardAlpha" operator="out"/>
<feColorMatrix type="matrix" values="0 0 0 0 0.258824 0 0 0 0 0.278431 0 0 0 0 0.298039 0 0 0 0.32 0"/>
<feBlend mode="normal" in2="effect1_dropShadow_511_5271" result="effect2_dropShadow_511_5271"/>
<feBlend mode="normal" in="SourceGraphic" in2="effect2_dropShadow_511_5271" result="shape"/>
</filter>
<clipPath id="clip0_511_5271">
<rect x="1" y="0.679688" width="16" height="10.6425" fill="white"/>
</clipPath>
</defs>
</svg>
